<svg xmlns="http://www.w3.org/2000/svg" width="1425" height="630" viewBox="0 0 1425 630"><rect width="100%" height="100%" fill="white"/><defs><marker id="arrow" markerWidth="8" markerHeight="8" refX="7" refY="4" orient="auto"><path d="M0 0L8 4L0 8" fill="#718a98"/></marker></defs><path d="M10 75 C40 75 40 75 70 75" stroke="#97aeb9" stroke-width="1.4" fill="none" marker-end="url(#arrow)"><title>Wire 1678</title></path><path d="M310 75 C340 75 325 75 355 75" stroke="#97aeb9" stroke-width="1.4" fill="none" marker-end="url(#arrow)"><title>Wire 1657</title></path><path d="M310 75 C340 75 325 170 355 170" stroke="#97aeb9" stroke-width="1.4" fill="none" marker-end="url(#arrow)"><title>Wire 1657</title></path><path d="M310 75 C340 75 325 265 355 265" stroke="#97aeb9" stroke-width="1.4" fill="none" marker-end="url(#arrow)"><title>Wire 1657</title></path><path d="M310 75 C340 75 325 360 355 360" stroke="#97aeb9" stroke-width="1.4" fill="none" marker-end="url(#arrow)"><title>Wire 1657</title></path><path d="M595 75 C625 75 610 75 640 75" stroke="#97aeb9" stroke-width="1.4" fill="none" marker-end="url(#arrow)"><title>Wire 1659</title></path><path d="M595 75 C625 75 610 170 640 170" stroke="#97aeb9" stroke-width="1.4" fill="none" marker-end="url(#arrow)"><title>Wire 1659</title></path><path d="M880 75 C910 75 895 75 925 75" stroke="#97aeb9" stroke-width="1.4" fill="none" marker-end="url(#arrow)"><title>Wire 21</title></path><path d="M880 170 C910 170 895 170 925 170" stroke="#97aeb9" stroke-width="1.4" fill="none" marker-end="url(#arrow)"><title>Wire 22</title></path><path d="M595 170 C625 170 610 265 640 265" stroke="#97aeb9" stroke-width="1.4" fill="none" marker-end="url(#arrow)"><title>Wire 1665</title></path><path d="M880 265 C910 265 895 265 925 265" stroke="#97aeb9" stroke-width="1.4" fill="none" marker-end="url(#arrow)"><title>Wire 1667</title></path><path d="M595 265 C625 265 610 360 640 360" stroke="#97aeb9" stroke-width="1.4" fill="none" marker-end="url(#arrow)"><title>Wire 1669</title></path><path d="M595 265 C625 265 610 455 640 455" stroke="#97aeb9" stroke-width="1.4" fill="none" marker-end="url(#arrow)"><title>Wire 1669</title></path><path d="M880 360 C910 360 895 360 925 360" stroke="#97aeb9" stroke-width="1.4" fill="none" marker-end="url(#arrow)"><title>Wire 23</title></path><path d="M880 455 C910 455 895 455 925 455" stroke="#97aeb9" stroke-width="1.4" fill="none" marker-end="url(#arrow)"><title>Wire 24</title></path><path d="M595 360 C625 360 610 550 640 550" stroke="#97aeb9" stroke-width="1.4" fill="none" marker-end="url(#arrow)"><title>Wire 1675</title></path><path d="M880 550 C910 550 895 550 925 550" stroke="#97aeb9" stroke-width="1.4" fill="none" marker-end="url(#arrow)"><title>Wire 1677</title></path><g><rect x="70" y="50" width="240" height="66" rx="5" fill="#fff3d8" stroke="#8fa8b5"/><text x="80" y="73" font-family="sans-serif" font-size="13">Contact · UID 1656</text><text x="80" y="97" font-family="sans-serif" font-size="11">operand: ON</text><title>operand: ON</title></g><g><rect x="355" y="50" width="240" height="66" rx="5" fill="#fff3d8" stroke="#8fa8b5"/><text x="365" y="73" font-family="sans-serif" font-size="13">Contact · UID 1658</text><text x="365" y="97" font-family="sans-serif" font-size="11">operand: PV-02 GATE A EV</text><title>operand: PV-02 GATE A EV</title></g><g><rect x="355" y="145" width="240" height="66" rx="5" fill="#fff3d8" stroke="#8fa8b5"/><text x="365" y="168" font-family="sans-serif" font-size="13">Contact · UID 1664</text><text x="365" y="192" font-family="sans-serif" font-size="11">operand: Flag.RESET_ALLARM</text><title>operand: Flag.RESET_ALLARM</title></g><g><rect x="355" y="240" width="240" height="66" rx="5" fill="#fff3d8" stroke="#8fa8b5"/><text x="365" y="263" font-family="sans-serif" font-size="13">NOT Contact · UID 1668</text><text x="365" y="287" font-family="sans-serif" font-size="11">operand: PV-02 GATE A EV</text><title>operand: PV-02 GATE A EV</title></g><g><rect x="355" y="335" width="240" height="66" rx="5" fill="#fff3d8" stroke="#8fa8b5"/><text x="365" y="358" font-family="sans-serif" font-size="13">Contact · UID 1674</text><text x="365" y="382" font-family="sans-serif" font-size="11">operand: Flag.RESET_ALLARM</text><title>operand: Flag.RESET_ALLARM</title></g><g><rect x="640" y="50" width="240" height="66" rx="5" fill="#fff3d8" stroke="#8fa8b5"/><text x="650" y="73" font-family="sans-serif" font-size="13">NOT Contact · UID 1679</text><text x="650" y="97" font-family="sans-serif" font-size="11">operand: Flag.PV_02_GATE_A_MEM_OPE…</text><title>operand: Flag.PV_02_GATE_A_MEM_OPEN</title></g><g><rect x="640" y="145" width="240" height="66" rx="5" fill="#fff3d8" stroke="#8fa8b5"/><text x="650" y="168" font-family="sans-serif" font-size="13">Contact · UID 1660</text><text x="650" y="192" font-family="sans-serif" font-size="11">operand: Tag_84</text><title>operand: Tag_84</title></g><g><rect x="640" y="240" width="240" height="66" rx="5" fill="#fff3d8" stroke="#8fa8b5"/><text x="650" y="263" font-family="sans-serif" font-size="13">Contact · UID 1666</text><text x="650" y="287" font-family="sans-serif" font-size="11">operand: Allarm.PV_02_GATE_A_NOT_O…</text><title>operand: Allarm.PV_02_GATE_A_NOT_OPEN</title></g><g><rect x="640" y="335" width="240" height="66" rx="5" fill="#fff3d8" stroke="#8fa8b5"/><text x="650" y="358" font-family="sans-serif" font-size="13">NOT Contact · UID 1683</text><text x="650" y="382" font-family="sans-serif" font-size="11">operand: Flag.PV_02_GATE_A_MEM_CLO…</text><title>operand: Flag.PV_02_GATE_A_MEM_CLOSE</title></g><g><rect x="640" y="430" width="240" height="66" rx="5" fill="#fff3d8" stroke="#8fa8b5"/><text x="650" y="453" font-family="sans-serif" font-size="13">Contact · UID 1670</text><text x="650" y="477" font-family="sans-serif" font-size="11">operand: Tag_85</text><title>operand: Tag_85</title></g><g><rect x="640" y="525" width="240" height="66" rx="5" fill="#fff3d8" stroke="#8fa8b5"/><text x="650" y="548" font-family="sans-serif" font-size="13">Contact · UID 1676</text><text x="650" y="572" font-family="sans-serif" font-size="11">operand: Allarm.PV_02_GATE_A_NOT_C…</text><title>operand: Allarm.PV_02_GATE_A_NOT_CLOSE</title></g><g><rect x="925" y="50" width="240" height="66" rx="5" fill="#e3f3ee" stroke="#8fa8b5"/><text x="935" y="73" font-family="sans-serif" font-size="13">SdCoil · UID 1581</text><text x="935" y="97" font-family="sans-serif" font-size="11">value: S5T#7S; operand: Tag_84</text><title>value: S5T#7S; operand: Tag_84</title></g><g><rect x="925" y="145" width="240" height="66" rx="5" fill="#e3f3ee" stroke="#8fa8b5"/><text x="935" y="168" font-family="sans-serif" font-size="13">SCoil · UID 1587</text><text x="935" y="192" font-family="sans-serif" font-size="11">operand: Allarm.PV_02_GATE_A_NOT_O…</text><title>operand: Allarm.PV_02_GATE_A_NOT_OPEN</title></g><g><rect x="925" y="240" width="240" height="66" rx="5" fill="#e3f3ee" stroke="#8fa8b5"/><text x="935" y="263" font-family="sans-serif" font-size="13">RCoil · UID 1592</text><text x="935" y="287" font-family="sans-serif" font-size="11">operand: Allarm.PV_02_GATE_A_NOT_O…</text><title>operand: Allarm.PV_02_GATE_A_NOT_OPEN</title></g><g><rect x="925" y="335" width="240" height="66" rx="5" fill="#e3f3ee" stroke="#8fa8b5"/><text x="935" y="358" font-family="sans-serif" font-size="13">SdCoil · UID 1599</text><text x="935" y="382" font-family="sans-serif" font-size="11">value: S5T#7S; operand: Tag_85</text><title>value: S5T#7S; operand: Tag_85</title></g><g><rect x="925" y="430" width="240" height="66" rx="5" fill="#e3f3ee" stroke="#8fa8b5"/><text x="935" y="453" font-family="sans-serif" font-size="13">SCoil · UID 1605</text><text x="935" y="477" font-family="sans-serif" font-size="11">operand: Allarm.PV_02_GATE_A_NOT_C…</text><title>operand: Allarm.PV_02_GATE_A_NOT_CLOSE</title></g><g><rect x="925" y="525" width="240" height="66" rx="5" fill="#e3f3ee" stroke="#8fa8b5"/><text x="935" y="548" font-family="sans-serif" font-size="13">RCoil · UID 1610</text><text x="935" y="572" font-family="sans-serif" font-size="11">operand: Allarm.PV_02_GATE_A_NOT_C…</text><title>operand: Allarm.PV_02_GATE_A_NOT_CLOSE</title></g></svg>