<svg xmlns="http://www.w3.org/2000/svg" width="1140" height="180" viewBox="0 0 1140 180"><rect width="100%" height="100%" fill="white"/><defs><marker id="arrow" markerWidth="8" markerHeight="8" refX="7" refY="4" orient="auto"><path d="M0 0L8 4L0 8" fill="#718a98"/></marker></defs><path d="M10 75 C40 75 40 75 70 75" stroke="#97aeb9" stroke-width="1.4" fill="none" marker-end="url(#arrow)"><title>Wire 50</title></path><path d="M310 75 C340 75 325 75 355 75" stroke="#97aeb9" stroke-width="1.4" fill="none" marker-end="url(#arrow)"><title>Wire 52</title></path><path d="M595 75 C625 75 610 75 640 75" stroke="#97aeb9" stroke-width="1.4" fill="none" marker-end="url(#arrow)"><title>Wire 54</title></path><g><rect x="70" y="50" width="240" height="66" rx="5" fill="#fff3d8" stroke="#8fa8b5"/><text x="80" y="73" font-family="sans-serif" font-size="13">NOT Contact · UID 21</text><text x="80" y="97" font-family="sans-serif" font-size="11">operand: Simulation(1)</text><title>operand: Simulation(1)</title></g><g><rect x="355" y="50" width="240" height="66" rx="5" fill="#fff3d8" stroke="#8fa8b5"/><text x="365" y="73" font-family="sans-serif" font-size="13">Contact · UID 22</text><text x="365" y="97" font-family="sans-serif" font-size="11">operand: EM_OK</text><title>operand: EM_OK</title></g><g><rect x="640" y="50" width="240" height="66" rx="5" fill="#eaf0f8" stroke="#8fa8b5"/><text x="650" y="73" font-family="sans-serif" font-size="13">LRef · UID 23</text><text x="650" y="97" font-family="sans-serif" font-size="11">SwGate: fill_unit1.CONTROL_SIGNALS…</text><title>SwGate: fill_unit1.CONTROL_SIGNALS.SW_GATE0; CaptureEnable: Ref@28; SyncEnable: Ref@29; ErrorAck: Flag.RESET_ALLARM; EventAck: Flag.RESET_ALLARM; SetCountValue: Ref@32; StatusHW: Ref@33; StatusGate: Ref@34; StatusUp: Ref@35; StatusDown: Ref@36; CompResult0: Ref@37; CompResult1: Ref@38; SyncStatus: Ref@39; CaptureStatus: Ref@40; CapturedValue: Ref@41; ZeroStatus: Ref@42; PosOverflow: Ref@43; NegOverflow: Ref@44; Error: Ref@45; ErrorID: Ref@46; CountValue: fill_unit1.ACT_CNTV0; MeasuredValue: Ref@48; CompareMeasuredValue: Ref@49</title></g></svg>