<svg xmlns="http://www.w3.org/2000/svg" width="1140" height="630" viewBox="0 0 1140 630"><rect width="100%" height="100%" fill="white"/><defs><marker id="arrow" markerWidth="8" markerHeight="8" refX="7" refY="4" orient="auto"><path d="M0 0L8 4L0 8" fill="#718a98"/></marker></defs><path d="M10 75 C40 75 40 75 70 75" stroke="#97aeb9" stroke-width="1.4" fill="none" marker-end="url(#arrow)"><title>Wire 21</title></path><path d="M10 170 C40 170 40 170 70 170" stroke="#97aeb9" stroke-width="1.4" fill="none" marker-end="url(#arrow)"><title>Wire 21</title></path><path d="M10 265 C40 265 40 265 70 265" stroke="#97aeb9" stroke-width="1.4" fill="none" marker-end="url(#arrow)"><title>Wire 21</title></path><path d="M10 360 C40 360 40 360 70 360" stroke="#97aeb9" stroke-width="1.4" fill="none" marker-end="url(#arrow)"><title>Wire 21</title></path><path d="M10 455 C40 455 40 455 70 455" stroke="#97aeb9" stroke-width="1.4" fill="none" marker-end="url(#arrow)"><title>Wire 21</title></path><path d="M10 550 C40 550 40 550 70 550" stroke="#97aeb9" stroke-width="1.4" fill="none" marker-end="url(#arrow)"><title>Wire 21</title></path><path d="M310 75 C340 75 325 75 355 75" stroke="#97aeb9" stroke-width="1.4" fill="none" marker-end="url(#arrow)"><title>Wire 49</title></path><path d="M310 170 C340 170 325 170 355 170" stroke="#97aeb9" stroke-width="1.4" fill="none" marker-end="url(#arrow)"><title>Wire 53</title></path><path d="M310 265 C340 265 325 265 355 265" stroke="#97aeb9" stroke-width="1.4" fill="none" marker-end="url(#arrow)"><title>Wire 40</title></path><path d="M310 360 C340 360 325 265 355 265" stroke="#97aeb9" stroke-width="1.4" fill="none" marker-end="url(#arrow)"><title>Wire 38</title></path><path d="M310 455 C340 455 325 265 355 265" stroke="#97aeb9" stroke-width="1.4" fill="none" marker-end="url(#arrow)"><title>Wire 39</title></path><path d="M310 550 C340 550 325 265 355 265" stroke="#97aeb9" stroke-width="1.4" fill="none" marker-end="url(#arrow)"><title>Wire 44</title></path><path d="M595 265 C625 265 610 75 640 75" stroke="#97aeb9" stroke-width="1.4" fill="none" marker-end="url(#arrow)"><title>Wire 45</title></path><g><rect x="70" y="50" width="240" height="66" rx="5" fill="#fff3d8" stroke="#8fa8b5"/><text x="80" y="73" font-family="sans-serif" font-size="13">Contact · UID 23</text><text x="80" y="97" font-family="sans-serif" font-size="11">operand: Ref@24</text><title>operand: Ref@24</title></g><g><rect x="70" y="145" width="240" height="66" rx="5" fill="#fff3d8" stroke="#8fa8b5"/><text x="80" y="168" font-family="sans-serif" font-size="13">Contact · UID 26</text><text x="80" y="192" font-family="sans-serif" font-size="11">operand: Ref@27</text><title>operand: Ref@27</title></g><g><rect x="70" y="240" width="240" height="66" rx="5" fill="#fff3d8" stroke="#8fa8b5"/><text x="80" y="263" font-family="sans-serif" font-size="13">Contact · UID 29</text><text x="80" y="287" font-family="sans-serif" font-size="11">operand: Ref@30</text><title>operand: Ref@30</title></g><g><rect x="70" y="335" width="240" height="66" rx="5" fill="#fff3d8" stroke="#8fa8b5"/><text x="80" y="358" font-family="sans-serif" font-size="13">Contact · UID 32</text><text x="80" y="382" font-family="sans-serif" font-size="11">operand: Ref@33</text><title>operand: Ref@33</title></g><g><rect x="70" y="430" width="240" height="66" rx="5" fill="#fff3d8" stroke="#8fa8b5"/><text x="80" y="453" font-family="sans-serif" font-size="13">Contact · UID 35</text><text x="80" y="477" font-family="sans-serif" font-size="11">operand: Ref@36</text><title>operand: Ref@36</title></g><g><rect x="70" y="525" width="240" height="66" rx="5" fill="#fff3d8" stroke="#8fa8b5"/><text x="80" y="548" font-family="sans-serif" font-size="13">Contact · UID 42</text><text x="80" y="572" font-family="sans-serif" font-size="11">operand: Ref@43</text><title>operand: Ref@43</title></g><g><rect x="355" y="50" width="240" height="66" rx="5" fill="#e3f3ee" stroke="#8fa8b5"/><text x="365" y="73" font-family="sans-serif" font-size="13">Coil · UID 51</text><text x="365" y="97" font-family="sans-serif" font-size="11">operand: Ref@52</text><title>operand: Ref@52</title></g><g><rect x="355" y="145" width="240" height="66" rx="5" fill="#e3f3ee" stroke="#8fa8b5"/><text x="365" y="168" font-family="sans-serif" font-size="13">Coil · UID 55</text><text x="365" y="192" font-family="sans-serif" font-size="11">operand: Ref@56</text><title>operand: Ref@56</title></g><g><rect x="355" y="240" width="240" height="66" rx="5" fill="#eaf0f8" stroke="#8fa8b5"/><text x="365" y="263" font-family="sans-serif" font-size="13">O · UID 37</text><text x="365" y="287" font-family="sans-serif" font-size="11"></text><title></title></g><g><rect x="640" y="50" width="240" height="66" rx="5" fill="#e3f3ee" stroke="#8fa8b5"/><text x="650" y="73" font-family="sans-serif" font-size="13">Coil · UID 47</text><text x="650" y="97" font-family="sans-serif" font-size="11">operand: Ref@48</text><title>operand: Ref@48</title></g></svg>