<svg xmlns="http://www.w3.org/2000/svg" width="2565" height="630" viewBox="0 0 2565 630"><rect width="100%" height="100%" fill="white"/><defs><marker id="arrow" markerWidth="8" markerHeight="8" refX="7" refY="4" orient="auto"><path d="M0 0L8 4L0 8" fill="#718a98"/></marker></defs><path d="M10 75 C40 75 40 75 70 75" stroke="#97aeb9" stroke-width="1.4" fill="none" marker-end="url(#arrow)"><title>Wire 208</title></path><path d="M310 75 C340 75 325 75 355 75" stroke="#97aeb9" stroke-width="1.4" fill="none" marker-end="url(#arrow)"><title>Wire 187</title></path><path d="M310 75 C340 75 325 170 355 170" stroke="#97aeb9" stroke-width="1.4" fill="none" marker-end="url(#arrow)"><title>Wire 187</title></path><path d="M310 75 C340 75 325 265 355 265" stroke="#97aeb9" stroke-width="1.4" fill="none" marker-end="url(#arrow)"><title>Wire 187</title></path><path d="M595 75 C625 75 610 75 640 75" stroke="#97aeb9" stroke-width="1.4" fill="none" marker-end="url(#arrow)"><title>Wire 26</title></path><path d="M595 170 C625 170 610 75 640 75" stroke="#97aeb9" stroke-width="1.4" fill="none" marker-end="url(#arrow)"><title>Wire 193</title></path><path d="M880 75 C910 75 895 75 925 75" stroke="#97aeb9" stroke-width="1.4" fill="none" marker-end="url(#arrow)"><title>Wire 164</title></path><path d="M880 75 C910 75 895 170 925 170" stroke="#97aeb9" stroke-width="1.4" fill="none" marker-end="url(#arrow)"><title>Wire 164</title></path><path d="M1165 75 C1195 75 1180 75 1210 75" stroke="#97aeb9" stroke-width="1.4" fill="none" marker-end="url(#arrow)"><title>Wire 195</title></path><path d="M1450 75 C1480 75 1465 75 1495 75" stroke="#97aeb9" stroke-width="1.4" fill="none" marker-end="url(#arrow)"><title>Wire 197</title></path><path d="M1735 75 C1765 75 1750 75 1780 75" stroke="#97aeb9" stroke-width="1.4" fill="none" marker-end="url(#arrow)"><title>Wire 199</title></path><path d="M1165 170 C1195 170 1180 170 1210 170" stroke="#97aeb9" stroke-width="1.4" fill="none" marker-end="url(#arrow)"><title>Wire 201</title></path><path d="M1450 170 C1480 170 1465 170 1495 170" stroke="#97aeb9" stroke-width="1.4" fill="none" marker-end="url(#arrow)"><title>Wire 203</title></path><path d="M1735 170 C1765 170 1750 75 1780 75" stroke="#97aeb9" stroke-width="1.4" fill="none" marker-end="url(#arrow)"><title>Wire 205</title></path><path d="M2020 75 C2050 75 2035 75 2065 75" stroke="#97aeb9" stroke-width="1.4" fill="none" marker-end="url(#arrow)"><title>Wire 173</title></path><path d="M2020 75 C2050 75 2035 170 2065 170" stroke="#97aeb9" stroke-width="1.4" fill="none" marker-end="url(#arrow)"><title>Wire 173</title></path><path d="M595 265 C625 265 610 170 640 170" stroke="#97aeb9" stroke-width="1.4" fill="none" marker-end="url(#arrow)"><title>Wire 207</title></path><path d="M595 265 C625 265 610 265 640 265" stroke="#97aeb9" stroke-width="1.4" fill="none" marker-end="url(#arrow)"><title>Wire 207</title></path><path d="M595 265 C625 265 610 360 640 360" stroke="#97aeb9" stroke-width="1.4" fill="none" marker-end="url(#arrow)"><title>Wire 207</title></path><path d="M595 265 C625 265 610 455 640 455" stroke="#97aeb9" stroke-width="1.4" fill="none" marker-end="url(#arrow)"><title>Wire 207</title></path><path d="M595 265 C625 265 610 550 640 550" stroke="#97aeb9" stroke-width="1.4" fill="none" marker-end="url(#arrow)"><title>Wire 207</title></path><g><rect x="70" y="50" width="240" height="66" rx="5" fill="#fff3d8" stroke="#8fa8b5"/><text x="80" y="73" font-family="sans-serif" font-size="13">Contact · UID 186</text><text x="80" y="97" font-family="sans-serif" font-size="11">operand: ON</text><title>operand: ON</title></g><g><rect x="355" y="50" width="240" height="66" rx="5" fill="#fff3d8" stroke="#8fa8b5"/><text x="365" y="73" font-family="sans-serif" font-size="13">Contact · UID 188</text><text x="365" y="97" font-family="sans-serif" font-size="11">operand: ON</text><title>operand: ON</title></g><g><rect x="355" y="145" width="240" height="66" rx="5" fill="#fff3d8" stroke="#8fa8b5"/><text x="365" y="168" font-family="sans-serif" font-size="13">Contact · UID 192</text><text x="365" y="192" font-family="sans-serif" font-size="11">operand: UNDER TESTING</text><title>operand: UNDER TESTING</title></g><g><rect x="355" y="240" width="240" height="66" rx="5" fill="#fff3d8" stroke="#8fa8b5"/><text x="365" y="263" font-family="sans-serif" font-size="13">NOT Contact · UID 206</text><text x="365" y="287" font-family="sans-serif" font-size="11">operand: R1 Gate ON</text><title>operand: R1 Gate ON</title></g><g><rect x="640" y="50" width="240" height="66" rx="5" fill="#eaf0f8" stroke="#8fa8b5"/><text x="650" y="73" font-family="sans-serif" font-size="13">O · UID 104</text><text x="650" y="97" font-family="sans-serif" font-size="11"></text><title></title></g><g><rect x="640" y="145" width="240" height="66" rx="5" fill="#eaf0f8" stroke="#8fa8b5"/><text x="650" y="168" font-family="sans-serif" font-size="13">Move · UID 125</text><text x="650" y="192" font-family="sans-serif" font-size="11">in: 0; out1: WorkData.R1State</text><title>in: 0; out1: WorkData.R1State</title></g><g><rect x="640" y="240" width="240" height="66" rx="5" fill="#e3f3ee" stroke="#8fa8b5"/><text x="650" y="263" font-family="sans-serif" font-size="13">RCoil · UID 130</text><text x="650" y="287" font-family="sans-serif" font-size="11">operand: Open EV A 01  PV-01</text><title>operand: Open EV A 01  PV-01</title></g><g><rect x="640" y="335" width="240" height="66" rx="5" fill="#e3f3ee" stroke="#8fa8b5"/><text x="650" y="358" font-family="sans-serif" font-size="13">RCoil · UID 133</text><text x="650" y="382" font-family="sans-serif" font-size="11">operand: Open EV B 01  PV-01</text><title>operand: Open EV B 01  PV-01</title></g><g><rect x="640" y="430" width="240" height="66" rx="5" fill="#e3f3ee" stroke="#8fa8b5"/><text x="650" y="453" font-family="sans-serif" font-size="13">RCoil · UID 136</text><text x="650" y="477" font-family="sans-serif" font-size="11">operand: Close EV A 01  PV-01</text><title>operand: Close EV A 01  PV-01</title></g><g><rect x="640" y="525" width="240" height="66" rx="5" fill="#e3f3ee" stroke="#8fa8b5"/><text x="650" y="548" font-family="sans-serif" font-size="13">RCoil · UID 139</text><text x="650" y="572" font-family="sans-serif" font-size="11">operand: Close EV B 01  PV-01</text><title>operand: Close EV B 01  PV-01</title></g><g><rect x="925" y="50" width="240" height="66" rx="5" fill="#fff3d8" stroke="#8fa8b5"/><text x="935" y="73" font-family="sans-serif" font-size="13">Contact · UID 194</text><text x="935" y="97" font-family="sans-serif" font-size="11">operand: Flag.Enable_R1_GATE</text><title>operand: Flag.Enable_R1_GATE</title></g><g><rect x="925" y="145" width="240" height="66" rx="5" fill="#fff3d8" stroke="#8fa8b5"/><text x="935" y="168" font-family="sans-serif" font-size="13">NOT Contact · UID 200</text><text x="935" y="192" font-family="sans-serif" font-size="11">operand: Flag.Enable_R1_GATE</text><title>operand: Flag.Enable_R1_GATE</title></g><g><rect x="1210" y="50" width="240" height="66" rx="5" fill="#fff3d8" stroke="#8fa8b5"/><text x="1220" y="73" font-family="sans-serif" font-size="13">NOT Contact · UID 196</text><text x="1220" y="97" font-family="sans-serif" font-size="11">operand: Allarm.PV_01_GATE_A_NOT_O…</text><title>operand: Allarm.PV_01_GATE_A_NOT_OPEN</title></g><g><rect x="1210" y="145" width="240" height="66" rx="5" fill="#fff3d8" stroke="#8fa8b5"/><text x="1220" y="168" font-family="sans-serif" font-size="13">Contact · UID 202</text><text x="1220" y="192" font-family="sans-serif" font-size="11">operand: Flag.PV_01_GATE_A_MEM_OPE…</text><title>operand: Flag.PV_01_GATE_A_MEM_OPEN</title></g><g><rect x="1495" y="50" width="240" height="66" rx="5" fill="#fff3d8" stroke="#8fa8b5"/><text x="1505" y="73" font-family="sans-serif" font-size="13">NOT Contact · UID 198</text><text x="1505" y="97" font-family="sans-serif" font-size="11">operand: Allarm.PV_01_GATE_B_NOT_O…</text><title>operand: Allarm.PV_01_GATE_B_NOT_OPEN</title></g><g><rect x="1495" y="145" width="240" height="66" rx="5" fill="#fff3d8" stroke="#8fa8b5"/><text x="1505" y="168" font-family="sans-serif" font-size="13">Contact · UID 204</text><text x="1505" y="192" font-family="sans-serif" font-size="11">operand: Flag.PV_01_GATE_B_MEM_OPE…</text><title>operand: Flag.PV_01_GATE_B_MEM_OPEN</title></g><g><rect x="1780" y="50" width="240" height="66" rx="5" fill="#eaf0f8" stroke="#8fa8b5"/><text x="1790" y="73" font-family="sans-serif" font-size="13">O · UID 109</text><text x="1790" y="97" font-family="sans-serif" font-size="11"></text><title></title></g><g><rect x="2065" y="50" width="240" height="66" rx="5" fill="#e3f3ee" stroke="#8fa8b5"/><text x="2075" y="73" font-family="sans-serif" font-size="13">Coil · UID 115</text><text x="2075" y="97" font-family="sans-serif" font-size="11">operand: R1 Gate ON</text><title>operand: R1 Gate ON</title></g><g><rect x="2065" y="145" width="240" height="66" rx="5" fill="#e3f3ee" stroke="#8fa8b5"/><text x="2075" y="168" font-family="sans-serif" font-size="13">Coil · UID 117</text><text x="2075" y="192" font-family="sans-serif" font-size="11">operand: Flag.R1_GATE_LOOP_ON</text><title>operand: Flag.R1_GATE_LOOP_ON</title></g></svg>