<svg xmlns="http://www.w3.org/2000/svg" width="3135" height="345" viewBox="0 0 3135 345"><rect width="100%" height="100%" fill="white"/><defs><marker id="arrow" markerWidth="8" markerHeight="8" refX="7" refY="4" orient="auto"><path d="M0 0L8 4L0 8" fill="#718a98"/></marker></defs><path d="M10 75 C40 75 40 75 70 75" stroke="#97aeb9" stroke-width="1.4" fill="none" marker-end="url(#arrow)"><title>Wire 257</title></path><path d="M310 75 C340 75 325 75 355 75" stroke="#97aeb9" stroke-width="1.4" fill="none" marker-end="url(#arrow)"><title>Wire 256</title></path><path d="M310 75 C340 75 325 170 355 170" stroke="#97aeb9" stroke-width="1.4" fill="none" marker-end="url(#arrow)"><title>Wire 256</title></path><path d="M310 75 C340 75 325 265 355 265" stroke="#97aeb9" stroke-width="1.4" fill="none" marker-end="url(#arrow)"><title>Wire 256</title></path><path d="M595 75 C625 75 610 75 640 75" stroke="#97aeb9" stroke-width="1.4" fill="none" marker-end="url(#arrow)"><title>Wire 25</title></path><path d="M880 75 C910 75 895 75 925 75" stroke="#97aeb9" stroke-width="1.4" fill="none" marker-end="url(#arrow)"><title>Wire 26</title></path><path d="M1165 75 C1195 75 1180 75 1210 75" stroke="#97aeb9" stroke-width="1.4" fill="none" marker-end="url(#arrow)"><title>Wire 227</title></path><path d="M1450 75 C1480 75 1465 75 1495 75" stroke="#97aeb9" stroke-width="1.4" fill="none" marker-end="url(#arrow)"><title>Wire 230</title></path><path d="M1735 75 C1765 75 1750 75 1780 75" stroke="#97aeb9" stroke-width="1.4" fill="none" marker-end="url(#arrow)"><title>Wire 234</title></path><path d="M2020 75 C2050 75 2035 75 2065 75" stroke="#97aeb9" stroke-width="1.4" fill="none" marker-end="url(#arrow)"><title>Wire 237</title></path><path d="M2305 75 C2335 75 2320 75 2350 75" stroke="#97aeb9" stroke-width="1.4" fill="none" marker-end="url(#arrow)"><title>Wire 241</title></path><path d="M2590 75 C2620 75 2605 75 2635 75" stroke="#97aeb9" stroke-width="1.4" fill="none" marker-end="url(#arrow)"><title>Wire 245</title></path><path d="M595 170 C625 170 610 170 640 170" stroke="#97aeb9" stroke-width="1.4" fill="none" marker-end="url(#arrow)"><title>Wire 35</title></path><path d="M595 265 C625 265 610 170 640 170" stroke="#97aeb9" stroke-width="1.4" fill="none" marker-end="url(#arrow)"><title>Wire 48</title></path><path d="M880 170 C910 170 895 170 925 170" stroke="#97aeb9" stroke-width="1.4" fill="none" marker-end="url(#arrow)"><title>Wire 49</title></path><path d="M1165 170 C1195 170 1180 170 1210 170" stroke="#97aeb9" stroke-width="1.4" fill="none" marker-end="url(#arrow)"><title>Wire 21</title></path><g><rect x="70" y="50" width="240" height="66" rx="5" fill="#fff3d8" stroke="#8fa8b5"/><text x="80" y="73" font-family="sans-serif" font-size="13">Contact · UID 255</text><text x="80" y="97" font-family="sans-serif" font-size="11">operand: IN0</text><title>operand: IN0</title></g><g><rect x="355" y="50" width="240" height="66" rx="5" fill="#eaf0f8" stroke="#8fa8b5"/><text x="365" y="73" font-family="sans-serif" font-size="13">Gt · UID 258</text><text x="365" y="97" font-family="sans-serif" font-size="11">in1: Analog_input; in2: -1382</text><title>in1: Analog_input; in2: -1382</title></g><g><rect x="355" y="145" width="240" height="66" rx="5" fill="#eaf0f8" stroke="#8fa8b5"/><text x="365" y="168" font-family="sans-serif" font-size="13">Gt · UID 190</text><text x="365" y="192" font-family="sans-serif" font-size="11">in1: Analog_input; in2: 32767</text><title>in1: Analog_input; in2: 32767</title></g><g><rect x="355" y="240" width="240" height="66" rx="5" fill="#eaf0f8" stroke="#8fa8b5"/><text x="365" y="263" font-family="sans-serif" font-size="13">Le · UID 259</text><text x="365" y="287" font-family="sans-serif" font-size="11">in1: Analog_input; in2: -1382</text><title>in1: Analog_input; in2: -1382</title></g><g><rect x="640" y="50" width="240" height="66" rx="5" fill="#eaf0f8" stroke="#8fa8b5"/><text x="650" y="73" font-family="sans-serif" font-size="13">Le · UID 161</text><text x="650" y="97" font-family="sans-serif" font-size="11">in1: Analog_input; in2: 32767</text><title>in1: Analog_input; in2: 32767</title></g><g><rect x="640" y="145" width="240" height="66" rx="5" fill="#eaf0f8" stroke="#8fa8b5"/><text x="650" y="168" font-family="sans-serif" font-size="13">O · UID 47</text><text x="650" y="192" font-family="sans-serif" font-size="11"></text><title></title></g><g><rect x="925" y="50" width="240" height="66" rx="5" fill="#eaf0f8" stroke="#8fa8b5"/><text x="935" y="73" font-family="sans-serif" font-size="13">Convert · UID 164</text><text x="935" y="97" font-family="sans-serif" font-size="11">in: Analog_input; out: App5</text><title>in: Analog_input; out: App5</title></g><g><rect x="925" y="145" width="240" height="66" rx="5" fill="#eaf0f8" stroke="#8fa8b5"/><text x="935" y="168" font-family="sans-serif" font-size="13">Move · UID 193</text><text x="935" y="192" font-family="sans-serif" font-size="11">in: -9999; out1: OutValue</text><title>in: -9999; out1: OutValue</title></g><g><rect x="1210" y="50" width="240" height="66" rx="5" fill="#eaf0f8" stroke="#8fa8b5"/><text x="1220" y="73" font-family="sans-serif" font-size="13">Convert · UID 167</text><text x="1220" y="97" font-family="sans-serif" font-size="11">in: Zero; out: App6</text><title>in: Zero; out: App6</title></g><g><rect x="1210" y="145" width="240" height="66" rx="5" fill="#e3f3ee" stroke="#8fa8b5"/><text x="1220" y="168" font-family="sans-serif" font-size="13">Coil · UID 23</text><text x="1220" y="192" font-family="sans-serif" font-size="11">operand: Out_of_range</text><title>operand: Out_of_range</title></g><g><rect x="1495" y="50" width="240" height="66" rx="5" fill="#eaf0f8" stroke="#8fa8b5"/><text x="1505" y="73" font-family="sans-serif" font-size="13">Add · UID 170</text><text x="1505" y="97" font-family="sans-serif" font-size="11">in1: App5; in2: App6; out: App3</text><title>in1: App5; in2: App6; out: App3</title></g><g><rect x="1780" y="50" width="240" height="66" rx="5" fill="#eaf0f8" stroke="#8fa8b5"/><text x="1790" y="73" font-family="sans-serif" font-size="13">Convert · UID 174</text><text x="1790" y="97" font-family="sans-serif" font-size="11">in: Coeff; out: App4</text><title>in: Coeff; out: App4</title></g><g><rect x="2065" y="50" width="240" height="66" rx="5" fill="#eaf0f8" stroke="#8fa8b5"/><text x="2075" y="73" font-family="sans-serif" font-size="13">Mul · UID 177</text><text x="2075" y="97" font-family="sans-serif" font-size="11">in1: App3; in2: App4; out: App3</text><title>in1: App3; in2: App4; out: App3</title></g><g><rect x="2350" y="50" width="240" height="66" rx="5" fill="#eaf0f8" stroke="#8fa8b5"/><text x="2360" y="73" font-family="sans-serif" font-size="13">Div · UID 181</text><text x="2360" y="97" font-family="sans-serif" font-size="11">in1: App3; in2: 28000; out: App3</text><title>in1: App3; in2: 28000; out: App3</title></g><g><rect x="2635" y="50" width="240" height="66" rx="5" fill="#eaf0f8" stroke="#8fa8b5"/><text x="2645" y="73" font-family="sans-serif" font-size="13">Move · UID 185</text><text x="2645" y="97" font-family="sans-serif" font-size="11">in: App3; out1: OutValue</text><title>in: App3; out1: OutValue</title></g></svg>