<svg xmlns="http://www.w3.org/2000/svg" width="1995" height="345" viewBox="0 0 1995 345"><rect width="100%" height="100%" fill="white"/><defs><marker id="arrow" markerWidth="8" markerHeight="8" refX="7" refY="4" orient="auto"><path d="M0 0L8 4L0 8" fill="#718a98"/></marker></defs><path d="M10 75 C40 75 40 75 70 75" stroke="#97aeb9" stroke-width="1.4" fill="none" marker-end="url(#arrow)"><title>Wire 1375</title></path><path d="M310 75 C340 75 325 75 355 75" stroke="#97aeb9" stroke-width="1.4" fill="none" marker-end="url(#arrow)"><title>Wire 1360</title></path><path d="M310 75 C340 75 325 170 355 170" stroke="#97aeb9" stroke-width="1.4" fill="none" marker-end="url(#arrow)"><title>Wire 1360</title></path><path d="M310 75 C340 75 325 265 355 265" stroke="#97aeb9" stroke-width="1.4" fill="none" marker-end="url(#arrow)"><title>Wire 1360</title></path><path d="M595 75 C625 75 610 75 640 75" stroke="#97aeb9" stroke-width="1.4" fill="none" marker-end="url(#arrow)"><title>Wire 1362</title></path><path d="M595 170 C625 170 610 75 640 75" stroke="#97aeb9" stroke-width="1.4" fill="none" marker-end="url(#arrow)"><title>Wire 1364</title></path><path d="M880 75 C910 75 895 75 925 75" stroke="#97aeb9" stroke-width="1.4" fill="none" marker-end="url(#arrow)"><title>Wire 1345</title></path><path d="M880 75 C910 75 895 170 925 170" stroke="#97aeb9" stroke-width="1.4" fill="none" marker-end="url(#arrow)"><title>Wire 1345</title></path><path d="M1165 170 C1195 170 1180 75 1210 75" stroke="#97aeb9" stroke-width="1.4" fill="none" marker-end="url(#arrow)"><title>Wire 1366</title></path><path d="M595 265 C625 265 610 170 640 170" stroke="#97aeb9" stroke-width="1.4" fill="none" marker-end="url(#arrow)"><title>Wire 1368</title></path><path d="M880 170 C910 170 895 265 925 265" stroke="#97aeb9" stroke-width="1.4" fill="none" marker-end="url(#arrow)"><title>Wire 1370</title></path><path d="M1165 265 C1195 265 1180 170 1210 170" stroke="#97aeb9" stroke-width="1.4" fill="none" marker-end="url(#arrow)"><title>Wire 1372</title></path><path d="M1450 170 C1480 170 1465 75 1495 75" stroke="#97aeb9" stroke-width="1.4" fill="none" marker-end="url(#arrow)"><title>Wire 1374</title></path><g><rect x="70" y="50" width="240" height="66" rx="5" fill="#fff3d8" stroke="#8fa8b5"/><text x="80" y="73" font-family="sans-serif" font-size="13">Contact · UID 1359</text><text x="80" y="97" font-family="sans-serif" font-size="11">operand: ON</text><title>operand: ON</title></g><g><rect x="355" y="50" width="240" height="66" rx="5" fill="#fff3d8" stroke="#8fa8b5"/><text x="365" y="73" font-family="sans-serif" font-size="13">Contact · UID 1361</text><text x="365" y="97" font-family="sans-serif" font-size="11">operand: Stechio.Sign_lim_min</text><title>operand: Stechio.Sign_lim_min</title></g><g><rect x="355" y="145" width="240" height="66" rx="5" fill="#fff3d8" stroke="#8fa8b5"/><text x="365" y="168" font-family="sans-serif" font-size="13">Contact · UID 1363</text><text x="365" y="192" font-family="sans-serif" font-size="11">operand: Stechio.Sign_lim_MAX</text><title>operand: Stechio.Sign_lim_MAX</title></g><g><rect x="355" y="240" width="240" height="66" rx="5" fill="#fff3d8" stroke="#8fa8b5"/><text x="365" y="263" font-family="sans-serif" font-size="13">Contact · UID 1367</text><text x="365" y="287" font-family="sans-serif" font-size="11">operand: Flag.RESET_ALLARM</text><title>operand: Flag.RESET_ALLARM</title></g><g><rect x="640" y="50" width="240" height="66" rx="5" fill="#eaf0f8" stroke="#8fa8b5"/><text x="650" y="73" font-family="sans-serif" font-size="13">O · UID 1311</text><text x="650" y="97" font-family="sans-serif" font-size="11"></text><title></title></g><g><rect x="640" y="145" width="240" height="66" rx="5" fill="#fff3d8" stroke="#8fa8b5"/><text x="650" y="168" font-family="sans-serif" font-size="13">Contact · UID 1369</text><text x="650" y="192" font-family="sans-serif" font-size="11">operand: Allarm.Sechio_Limits</text><title>operand: Allarm.Sechio_Limits</title></g><g><rect x="925" y="50" width="240" height="66" rx="5" fill="#e3f3ee" stroke="#8fa8b5"/><text x="935" y="73" font-family="sans-serif" font-size="13">SdCoil · UID 1317</text><text x="935" y="97" font-family="sans-serif" font-size="11">value: S5T#20S; operand: Tag_146</text><title>value: S5T#20S; operand: Tag_146</title></g><g><rect x="925" y="145" width="240" height="66" rx="5" fill="#fff3d8" stroke="#8fa8b5"/><text x="935" y="168" font-family="sans-serif" font-size="13">Contact · UID 1365</text><text x="935" y="192" font-family="sans-serif" font-size="11">operand: Tag_146</text><title>operand: Tag_146</title></g><g><rect x="925" y="240" width="240" height="66" rx="5" fill="#fff3d8" stroke="#8fa8b5"/><text x="935" y="263" font-family="sans-serif" font-size="13">NOT Contact · UID 1371</text><text x="935" y="287" font-family="sans-serif" font-size="11">operand: Stechio.Sign_lim_min</text><title>operand: Stechio.Sign_lim_min</title></g><g><rect x="1210" y="50" width="240" height="66" rx="5" fill="#e3f3ee" stroke="#8fa8b5"/><text x="1220" y="73" font-family="sans-serif" font-size="13">SCoil · UID 1322</text><text x="1220" y="97" font-family="sans-serif" font-size="11">operand: Allarm.Sechio_Limits</text><title>operand: Allarm.Sechio_Limits</title></g><g><rect x="1210" y="145" width="240" height="66" rx="5" fill="#fff3d8" stroke="#8fa8b5"/><text x="1220" y="168" font-family="sans-serif" font-size="13">NOT Contact · UID 1373</text><text x="1220" y="192" font-family="sans-serif" font-size="11">operand: Stechio.Sign_lim_MAX</text><title>operand: Stechio.Sign_lim_MAX</title></g><g><rect x="1495" y="50" width="240" height="66" rx="5" fill="#e3f3ee" stroke="#8fa8b5"/><text x="1505" y="73" font-family="sans-serif" font-size="13">RCoil · UID 1329</text><text x="1505" y="97" font-family="sans-serif" font-size="11">operand: Allarm.Sechio_Limits</text><title>operand: Allarm.Sechio_Limits</title></g></svg>