<svg xmlns="http://www.w3.org/2000/svg" width="1710" height="1010" viewBox="0 0 1710 1010"><rect width="100%" height="100%" fill="white"/><defs><marker id="arrow" markerWidth="8" markerHeight="8" refX="7" refY="4" orient="auto"><path d="M0 0L8 4L0 8" fill="#718a98"/></marker></defs><path d="M10 75 C40 75 40 75 70 75" stroke="#97aeb9" stroke-width="1.4" fill="none" marker-end="url(#arrow)"><title>Wire 1764</title></path><path d="M310 75 C340 75 325 75 355 75" stroke="#97aeb9" stroke-width="1.4" fill="none" marker-end="url(#arrow)"><title>Wire 1741</title></path><path d="M595 75 C625 75 610 75 640 75" stroke="#97aeb9" stroke-width="1.4" fill="none" marker-end="url(#arrow)"><title>Wire 1743</title></path><path d="M595 75 C625 75 610 170 640 170" stroke="#97aeb9" stroke-width="1.4" fill="none" marker-end="url(#arrow)"><title>Wire 1743</title></path><path d="M595 75 C625 75 610 265 640 265" stroke="#97aeb9" stroke-width="1.4" fill="none" marker-end="url(#arrow)"><title>Wire 1743</title></path><path d="M595 75 C625 75 610 360 640 360" stroke="#97aeb9" stroke-width="1.4" fill="none" marker-end="url(#arrow)"><title>Wire 1743</title></path><path d="M595 75 C625 75 610 455 640 455" stroke="#97aeb9" stroke-width="1.4" fill="none" marker-end="url(#arrow)"><title>Wire 1743</title></path><path d="M595 75 C625 75 610 550 640 550" stroke="#97aeb9" stroke-width="1.4" fill="none" marker-end="url(#arrow)"><title>Wire 1743</title></path><path d="M595 75 C625 75 610 645 640 645" stroke="#97aeb9" stroke-width="1.4" fill="none" marker-end="url(#arrow)"><title>Wire 1743</title></path><path d="M595 75 C625 75 610 740 640 740" stroke="#97aeb9" stroke-width="1.4" fill="none" marker-end="url(#arrow)"><title>Wire 1743</title></path><path d="M595 75 C625 75 610 835 640 835" stroke="#97aeb9" stroke-width="1.4" fill="none" marker-end="url(#arrow)"><title>Wire 1743</title></path><path d="M595 75 C625 75 610 930 640 930" stroke="#97aeb9" stroke-width="1.4" fill="none" marker-end="url(#arrow)"><title>Wire 1743</title></path><path d="M880 75 C910 75 895 75 925 75" stroke="#97aeb9" stroke-width="1.4" fill="none" marker-end="url(#arrow)"><title>Wire 1681</title></path><path d="M1165 75 C1195 75 1180 75 1210 75" stroke="#97aeb9" stroke-width="1.4" fill="none" marker-end="url(#arrow)"><title>Wire 1745</title></path><path d="M880 170 C910 170 895 170 925 170" stroke="#97aeb9" stroke-width="1.4" fill="none" marker-end="url(#arrow)"><title>Wire 1687</title></path><path d="M1165 170 C1195 170 1180 170 1210 170" stroke="#97aeb9" stroke-width="1.4" fill="none" marker-end="url(#arrow)"><title>Wire 1747</title></path><path d="M880 265 C910 265 895 265 925 265" stroke="#97aeb9" stroke-width="1.4" fill="none" marker-end="url(#arrow)"><title>Wire 1693</title></path><path d="M1165 265 C1195 265 1180 265 1210 265" stroke="#97aeb9" stroke-width="1.4" fill="none" marker-end="url(#arrow)"><title>Wire 1749</title></path><path d="M880 360 C910 360 895 360 925 360" stroke="#97aeb9" stroke-width="1.4" fill="none" marker-end="url(#arrow)"><title>Wire 1699</title></path><path d="M1165 360 C1195 360 1180 360 1210 360" stroke="#97aeb9" stroke-width="1.4" fill="none" marker-end="url(#arrow)"><title>Wire 1751</title></path><path d="M880 455 C910 455 895 455 925 455" stroke="#97aeb9" stroke-width="1.4" fill="none" marker-end="url(#arrow)"><title>Wire 1705</title></path><path d="M1165 455 C1195 455 1180 455 1210 455" stroke="#97aeb9" stroke-width="1.4" fill="none" marker-end="url(#arrow)"><title>Wire 1753</title></path><path d="M880 550 C910 550 895 550 925 550" stroke="#97aeb9" stroke-width="1.4" fill="none" marker-end="url(#arrow)"><title>Wire 1711</title></path><path d="M1165 550 C1195 550 1180 550 1210 550" stroke="#97aeb9" stroke-width="1.4" fill="none" marker-end="url(#arrow)"><title>Wire 1755</title></path><path d="M880 645 C910 645 895 645 925 645" stroke="#97aeb9" stroke-width="1.4" fill="none" marker-end="url(#arrow)"><title>Wire 1717</title></path><path d="M1165 645 C1195 645 1180 645 1210 645" stroke="#97aeb9" stroke-width="1.4" fill="none" marker-end="url(#arrow)"><title>Wire 1757</title></path><path d="M880 740 C910 740 895 740 925 740" stroke="#97aeb9" stroke-width="1.4" fill="none" marker-end="url(#arrow)"><title>Wire 1723</title></path><path d="M1165 740 C1195 740 1180 740 1210 740" stroke="#97aeb9" stroke-width="1.4" fill="none" marker-end="url(#arrow)"><title>Wire 1759</title></path><path d="M880 835 C910 835 895 835 925 835" stroke="#97aeb9" stroke-width="1.4" fill="none" marker-end="url(#arrow)"><title>Wire 1729</title></path><path d="M1165 835 C1195 835 1180 835 1210 835" stroke="#97aeb9" stroke-width="1.4" fill="none" marker-end="url(#arrow)"><title>Wire 1761</title></path><path d="M880 930 C910 930 895 930 925 930" stroke="#97aeb9" stroke-width="1.4" fill="none" marker-end="url(#arrow)"><title>Wire 1735</title></path><path d="M1165 930 C1195 930 1180 930 1210 930" stroke="#97aeb9" stroke-width="1.4" fill="none" marker-end="url(#arrow)"><title>Wire 1763</title></path><g><rect x="70" y="50" width="240" height="66" rx="5" fill="#fff3d8" stroke="#8fa8b5"/><text x="80" y="73" font-family="sans-serif" font-size="13">Contact · UID 1740</text><text x="80" y="97" font-family="sans-serif" font-size="11">operand: ON</text><title>operand: ON</title></g><g><rect x="355" y="50" width="240" height="66" rx="5" fill="#fff3d8" stroke="#8fa8b5"/><text x="365" y="73" font-family="sans-serif" font-size="13">Contact · UID 1742</text><text x="365" y="97" font-family="sans-serif" font-size="11">operand: Tag_132</text><title>operand: Tag_132</title></g><g><rect x="640" y="50" width="240" height="66" rx="5" fill="#eaf0f8" stroke="#8fa8b5"/><text x="650" y="73" font-family="sans-serif" font-size="13">Eq · UID 1567</text><text x="650" y="97" font-family="sans-serif" font-size="11">in1: Data.Ev_filter_on; in2: 61</text><title>in1: Data.Ev_filter_on; in2: 61</title></g><g><rect x="640" y="145" width="240" height="66" rx="5" fill="#eaf0f8" stroke="#8fa8b5"/><text x="650" y="168" font-family="sans-serif" font-size="13">Eq · UID 1574</text><text x="650" y="192" font-family="sans-serif" font-size="11">in1: Data.Ev_filter_on; in2: 62</text><title>in1: Data.Ev_filter_on; in2: 62</title></g><g><rect x="640" y="240" width="240" height="66" rx="5" fill="#eaf0f8" stroke="#8fa8b5"/><text x="650" y="263" font-family="sans-serif" font-size="13">Eq · UID 1581</text><text x="650" y="287" font-family="sans-serif" font-size="11">in1: Data.Ev_filter_on; in2: 63</text><title>in1: Data.Ev_filter_on; in2: 63</title></g><g><rect x="640" y="335" width="240" height="66" rx="5" fill="#eaf0f8" stroke="#8fa8b5"/><text x="650" y="358" font-family="sans-serif" font-size="13">Eq · UID 1588</text><text x="650" y="382" font-family="sans-serif" font-size="11">in1: Data.Ev_filter_on; in2: 64</text><title>in1: Data.Ev_filter_on; in2: 64</title></g><g><rect x="640" y="430" width="240" height="66" rx="5" fill="#eaf0f8" stroke="#8fa8b5"/><text x="650" y="453" font-family="sans-serif" font-size="13">Eq · UID 1595</text><text x="650" y="477" font-family="sans-serif" font-size="11">in1: Data.Ev_filter_on; in2: 65</text><title>in1: Data.Ev_filter_on; in2: 65</title></g><g><rect x="640" y="525" width="240" height="66" rx="5" fill="#eaf0f8" stroke="#8fa8b5"/><text x="650" y="548" font-family="sans-serif" font-size="13">Eq · UID 1602</text><text x="650" y="572" font-family="sans-serif" font-size="11">in1: Data.Ev_filter_on; in2: 66</text><title>in1: Data.Ev_filter_on; in2: 66</title></g><g><rect x="640" y="620" width="240" height="66" rx="5" fill="#eaf0f8" stroke="#8fa8b5"/><text x="650" y="643" font-family="sans-serif" font-size="13">Eq · UID 1609</text><text x="650" y="667" font-family="sans-serif" font-size="11">in1: Data.Ev_filter_on; in2: 67</text><title>in1: Data.Ev_filter_on; in2: 67</title></g><g><rect x="640" y="715" width="240" height="66" rx="5" fill="#eaf0f8" stroke="#8fa8b5"/><text x="650" y="738" font-family="sans-serif" font-size="13">Eq · UID 1616</text><text x="650" y="762" font-family="sans-serif" font-size="11">in1: Data.Ev_filter_on; in2: 68</text><title>in1: Data.Ev_filter_on; in2: 68</title></g><g><rect x="640" y="810" width="240" height="66" rx="5" fill="#eaf0f8" stroke="#8fa8b5"/><text x="650" y="833" font-family="sans-serif" font-size="13">Eq · UID 1623</text><text x="650" y="857" font-family="sans-serif" font-size="11">in1: Data.Ev_filter_on; in2: 69</text><title>in1: Data.Ev_filter_on; in2: 69</title></g><g><rect x="640" y="905" width="240" height="66" rx="5" fill="#eaf0f8" stroke="#8fa8b5"/><text x="650" y="928" font-family="sans-serif" font-size="13">Eq · UID 1630</text><text x="650" y="952" font-family="sans-serif" font-size="11">in1: Data.Ev_filter_on; in2: 70</text><title>in1: Data.Ev_filter_on; in2: 70</title></g><g><rect x="925" y="50" width="240" height="66" rx="5" fill="#fff3d8" stroke="#8fa8b5"/><text x="935" y="73" font-family="sans-serif" font-size="13">Contact · UID 1744</text><text x="935" y="97" font-family="sans-serif" font-size="11">operand: Abilita_lavaggio_BF01</text><title>operand: Abilita_lavaggio_BF01</title></g><g><rect x="925" y="145" width="240" height="66" rx="5" fill="#fff3d8" stroke="#8fa8b5"/><text x="935" y="168" font-family="sans-serif" font-size="13">Contact · UID 1746</text><text x="935" y="192" font-family="sans-serif" font-size="11">operand: Abilita_lavaggio_BF02</text><title>operand: Abilita_lavaggio_BF02</title></g><g><rect x="925" y="240" width="240" height="66" rx="5" fill="#fff3d8" stroke="#8fa8b5"/><text x="935" y="263" font-family="sans-serif" font-size="13">Contact · UID 1748</text><text x="935" y="287" font-family="sans-serif" font-size="11">operand: Abilita_lavaggio_BF01</text><title>operand: Abilita_lavaggio_BF01</title></g><g><rect x="925" y="335" width="240" height="66" rx="5" fill="#fff3d8" stroke="#8fa8b5"/><text x="935" y="358" font-family="sans-serif" font-size="13">Contact · UID 1750</text><text x="935" y="382" font-family="sans-serif" font-size="11">operand: Abilita_lavaggio_BF02</text><title>operand: Abilita_lavaggio_BF02</title></g><g><rect x="925" y="430" width="240" height="66" rx="5" fill="#fff3d8" stroke="#8fa8b5"/><text x="935" y="453" font-family="sans-serif" font-size="13">Contact · UID 1752</text><text x="935" y="477" font-family="sans-serif" font-size="11">operand: Abilita_lavaggio_BF01</text><title>operand: Abilita_lavaggio_BF01</title></g><g><rect x="925" y="525" width="240" height="66" rx="5" fill="#fff3d8" stroke="#8fa8b5"/><text x="935" y="548" font-family="sans-serif" font-size="13">Contact · UID 1754</text><text x="935" y="572" font-family="sans-serif" font-size="11">operand: Abilita_lavaggio_BF02</text><title>operand: Abilita_lavaggio_BF02</title></g><g><rect x="925" y="620" width="240" height="66" rx="5" fill="#fff3d8" stroke="#8fa8b5"/><text x="935" y="643" font-family="sans-serif" font-size="13">Contact · UID 1756</text><text x="935" y="667" font-family="sans-serif" font-size="11">operand: Abilita_lavaggio_BF01</text><title>operand: Abilita_lavaggio_BF01</title></g><g><rect x="925" y="715" width="240" height="66" rx="5" fill="#fff3d8" stroke="#8fa8b5"/><text x="935" y="738" font-family="sans-serif" font-size="13">Contact · UID 1758</text><text x="935" y="762" font-family="sans-serif" font-size="11">operand: Abilita_lavaggio_BF02</text><title>operand: Abilita_lavaggio_BF02</title></g><g><rect x="925" y="810" width="240" height="66" rx="5" fill="#fff3d8" stroke="#8fa8b5"/><text x="935" y="833" font-family="sans-serif" font-size="13">Contact · UID 1760</text><text x="935" y="857" font-family="sans-serif" font-size="11">operand: Abilita_lavaggio_BF01</text><title>operand: Abilita_lavaggio_BF01</title></g><g><rect x="925" y="905" width="240" height="66" rx="5" fill="#fff3d8" stroke="#8fa8b5"/><text x="935" y="928" font-family="sans-serif" font-size="13">Contact · UID 1762</text><text x="935" y="952" font-family="sans-serif" font-size="11">operand: Abilita_lavaggio_BF02</text><title>operand: Abilita_lavaggio_BF02</title></g><g><rect x="1210" y="50" width="240" height="66" rx="5" fill="#e3f3ee" stroke="#8fa8b5"/><text x="1220" y="73" font-family="sans-serif" font-size="13">Coil · UID 1571</text><text x="1220" y="97" font-family="sans-serif" font-size="11">operand: EV-36</text><title>operand: EV-36</title></g><g><rect x="1210" y="145" width="240" height="66" rx="5" fill="#e3f3ee" stroke="#8fa8b5"/><text x="1220" y="168" font-family="sans-serif" font-size="13">Coil · UID 1578</text><text x="1220" y="192" font-family="sans-serif" font-size="11">operand: EV-76</text><title>operand: EV-76</title></g><g><rect x="1210" y="240" width="240" height="66" rx="5" fill="#e3f3ee" stroke="#8fa8b5"/><text x="1220" y="263" font-family="sans-serif" font-size="13">Coil · UID 1585</text><text x="1220" y="287" font-family="sans-serif" font-size="11">operand: EV-37</text><title>operand: EV-37</title></g><g><rect x="1210" y="335" width="240" height="66" rx="5" fill="#e3f3ee" stroke="#8fa8b5"/><text x="1220" y="358" font-family="sans-serif" font-size="13">Coil · UID 1592</text><text x="1220" y="382" font-family="sans-serif" font-size="11">operand: EV-77</text><title>operand: EV-77</title></g><g><rect x="1210" y="430" width="240" height="66" rx="5" fill="#e3f3ee" stroke="#8fa8b5"/><text x="1220" y="453" font-family="sans-serif" font-size="13">Coil · UID 1599</text><text x="1220" y="477" font-family="sans-serif" font-size="11">operand: EV-38</text><title>operand: EV-38</title></g><g><rect x="1210" y="525" width="240" height="66" rx="5" fill="#e3f3ee" stroke="#8fa8b5"/><text x="1220" y="548" font-family="sans-serif" font-size="13">Coil · UID 1606</text><text x="1220" y="572" font-family="sans-serif" font-size="11">operand: EV-78</text><title>operand: EV-78</title></g><g><rect x="1210" y="620" width="240" height="66" rx="5" fill="#e3f3ee" stroke="#8fa8b5"/><text x="1220" y="643" font-family="sans-serif" font-size="13">Coil · UID 1613</text><text x="1220" y="667" font-family="sans-serif" font-size="11">operand: EV-39</text><title>operand: EV-39</title></g><g><rect x="1210" y="715" width="240" height="66" rx="5" fill="#e3f3ee" stroke="#8fa8b5"/><text x="1220" y="738" font-family="sans-serif" font-size="13">Coil · UID 1620</text><text x="1220" y="762" font-family="sans-serif" font-size="11">operand: EV-79</text><title>operand: EV-79</title></g><g><rect x="1210" y="810" width="240" height="66" rx="5" fill="#e3f3ee" stroke="#8fa8b5"/><text x="1220" y="833" font-family="sans-serif" font-size="13">Coil · UID 1627</text><text x="1220" y="857" font-family="sans-serif" font-size="11">operand: EV-40</text><title>operand: EV-40</title></g><g><rect x="1210" y="905" width="240" height="66" rx="5" fill="#e3f3ee" stroke="#8fa8b5"/><text x="1220" y="928" font-family="sans-serif" font-size="13">Coil · UID 1634</text><text x="1220" y="952" font-family="sans-serif" font-size="11">operand: EV-80</text><title>operand: EV-80</title></g></svg>