<svg xmlns="http://www.w3.org/2000/svg" width="1710" height="440" viewBox="0 0 1710 440"><rect width="100%" height="100%" fill="white"/><defs><marker id="arrow" markerWidth="8" markerHeight="8" refX="7" refY="4" orient="auto"><path d="M0 0L8 4L0 8" fill="#718a98"/></marker></defs><path d="M10 75 C40 75 40 75 70 75" stroke="#97aeb9" stroke-width="1.4" fill="none" marker-end="url(#arrow)"><title>Wire 683</title></path><path d="M310 75 C340 75 325 75 355 75" stroke="#97aeb9" stroke-width="1.4" fill="none" marker-end="url(#arrow)"><title>Wire 676</title></path><path d="M595 75 C625 75 610 75 640 75" stroke="#97aeb9" stroke-width="1.4" fill="none" marker-end="url(#arrow)"><title>Wire 650</title></path><path d="M595 75 C625 75 610 170 640 170" stroke="#97aeb9" stroke-width="1.4" fill="none" marker-end="url(#arrow)"><title>Wire 650</title></path><path d="M595 75 C625 75 610 265 640 265" stroke="#97aeb9" stroke-width="1.4" fill="none" marker-end="url(#arrow)"><title>Wire 650</title></path><path d="M595 75 C625 75 610 360 640 360" stroke="#97aeb9" stroke-width="1.4" fill="none" marker-end="url(#arrow)"><title>Wire 650</title></path><path d="M880 170 C910 170 895 75 925 75" stroke="#97aeb9" stroke-width="1.4" fill="none" marker-end="url(#arrow)"><title>Wire 678</title></path><path d="M880 265 C910 265 895 170 925 170" stroke="#97aeb9" stroke-width="1.4" fill="none" marker-end="url(#arrow)"><title>Wire 680</title></path><path d="M880 360 C910 360 895 265 925 265" stroke="#97aeb9" stroke-width="1.4" fill="none" marker-end="url(#arrow)"><title>Wire 682</title></path><path d="M880 360 C910 360 895 360 925 360" stroke="#97aeb9" stroke-width="1.4" fill="none" marker-end="url(#arrow)"><title>Wire 682</title></path><path d="M1165 265 C1195 265 1180 75 1210 75" stroke="#97aeb9" stroke-width="1.4" fill="none" marker-end="url(#arrow)"><title>Wire 665</title></path><path d="M1165 360 C1195 360 1180 170 1210 170" stroke="#97aeb9" stroke-width="1.4" fill="none" marker-end="url(#arrow)"><title>Wire 670</title></path><g><rect x="70" y="50" width="240" height="66" rx="5" fill="#fff3d8" stroke="#8fa8b5"/><text x="80" y="73" font-family="sans-serif" font-size="13">Contact · UID 675</text><text x="80" y="97" font-family="sans-serif" font-size="11">operand: ON</text><title>operand: ON</title></g><g><rect x="355" y="50" width="240" height="66" rx="5" fill="#eaf0f8" stroke="#8fa8b5"/><text x="365" y="73" font-family="sans-serif" font-size="13">Ne · UID 592</text><text x="365" y="97" font-family="sans-serif" font-size="11">in1: Data.PSH02_SETPOINT; in2: 0</text><title>in1: Data.PSH02_SETPOINT; in2: 0</title></g><g><rect x="640" y="50" width="240" height="66" rx="5" fill="#eaf0f8" stroke="#8fa8b5"/><text x="650" y="73" font-family="sans-serif" font-size="13">Sub · UID 598</text><text x="650" y="97" font-family="sans-serif" font-size="11">in1: Data.PSH02_SETPOINT; in2: Dat…</text><title>in1: Data.PSH02_SETPOINT; in2: Data.PSH_02; out: ErrPSH02</title></g><g><rect x="640" y="145" width="240" height="66" rx="5" fill="#fff3d8" stroke="#8fa8b5"/><text x="650" y="168" font-family="sans-serif" font-size="13">NOT Contact · UID 677</text><text x="650" y="192" font-family="sans-serif" font-size="11">operand: Tag_149</text><title>operand: Tag_149</title></g><g><rect x="640" y="240" width="240" height="66" rx="5" fill="#fff3d8" stroke="#8fa8b5"/><text x="650" y="263" font-family="sans-serif" font-size="13">Contact · UID 679</text><text x="650" y="287" font-family="sans-serif" font-size="11">operand: Tag_150</text><title>operand: Tag_150</title></g><g><rect x="640" y="335" width="240" height="66" rx="5" fill="#fff3d8" stroke="#8fa8b5"/><text x="650" y="358" font-family="sans-serif" font-size="13">NOT Contact · UID 681</text><text x="650" y="382" font-family="sans-serif" font-size="11">operand: Tag_150</text><title>operand: Tag_150</title></g><g><rect x="925" y="50" width="240" height="66" rx="5" fill="#e3f3ee" stroke="#8fa8b5"/><text x="935" y="73" font-family="sans-serif" font-size="13">SdCoil · UID 605</text><text x="935" y="97" font-family="sans-serif" font-size="11">value: S5T#300MS; operand: Tag_150</text><title>value: S5T#300MS; operand: Tag_150</title></g><g><rect x="925" y="145" width="240" height="66" rx="5" fill="#e3f3ee" stroke="#8fa8b5"/><text x="935" y="168" font-family="sans-serif" font-size="13">SdCoil · UID 610</text><text x="935" y="192" font-family="sans-serif" font-size="11">value: S5T#4S; operand: Tag_149</text><title>value: S5T#4S; operand: Tag_149</title></g><g><rect x="925" y="240" width="240" height="66" rx="5" fill="#eaf0f8" stroke="#8fa8b5"/><text x="935" y="263" font-family="sans-serif" font-size="13">Ge · UID 618</text><text x="935" y="287" font-family="sans-serif" font-size="11">in1: ErrPSH02; in2: 5</text><title>in1: ErrPSH02; in2: 5</title></g><g><rect x="925" y="335" width="240" height="66" rx="5" fill="#eaf0f8" stroke="#8fa8b5"/><text x="935" y="358" font-family="sans-serif" font-size="13">Le · UID 624</text><text x="935" y="382" font-family="sans-serif" font-size="11">in1: ErrPSH02; in2: -5</text><title>in1: ErrPSH02; in2: -5</title></g><g><rect x="1210" y="50" width="240" height="66" rx="5" fill="#e3f3ee" stroke="#8fa8b5"/><text x="1220" y="73" font-family="sans-serif" font-size="13">Coil · UID 621</text><text x="1220" y="97" font-family="sans-serif" font-size="11">operand: MV06 PID DOWN</text><title>operand: MV06 PID DOWN</title></g><g><rect x="1210" y="145" width="240" height="66" rx="5" fill="#e3f3ee" stroke="#8fa8b5"/><text x="1220" y="168" font-family="sans-serif" font-size="13">Coil · UID 627</text><text x="1220" y="192" font-family="sans-serif" font-size="11">operand: MV06 PID UP</text><title>operand: MV06 PID UP</title></g></svg>