<svg xmlns="http://www.w3.org/2000/svg" width="1710" height="440" viewBox="0 0 1710 440"><rect width="100%" height="100%" fill="white"/><defs><marker id="arrow" markerWidth="8" markerHeight="8" refX="7" refY="4" orient="auto"><path d="M0 0L8 4L0 8" fill="#718a98"/></marker></defs><path d="M10 75 C40 75 40 75 70 75" stroke="#97aeb9" stroke-width="1.4" fill="none" marker-end="url(#arrow)"><title>Wire 1267</title></path><path d="M310 75 C340 75 325 75 355 75" stroke="#97aeb9" stroke-width="1.4" fill="none" marker-end="url(#arrow)"><title>Wire 1252</title></path><path d="M310 75 C340 75 325 170 355 170" stroke="#97aeb9" stroke-width="1.4" fill="none" marker-end="url(#arrow)"><title>Wire 1252</title></path><path d="M310 75 C340 75 325 265 355 265" stroke="#97aeb9" stroke-width="1.4" fill="none" marker-end="url(#arrow)"><title>Wire 1252</title></path><path d="M595 75 C625 75 610 75 640 75" stroke="#97aeb9" stroke-width="1.4" fill="none" marker-end="url(#arrow)"><title>Wire 1254</title></path><path d="M595 170 C625 170 610 75 640 75" stroke="#97aeb9" stroke-width="1.4" fill="none" marker-end="url(#arrow)"><title>Wire 1256</title></path><path d="M880 75 C910 75 895 75 925 75" stroke="#97aeb9" stroke-width="1.4" fill="none" marker-end="url(#arrow)"><title>Wire 1233</title></path><path d="M880 75 C910 75 895 170 925 170" stroke="#97aeb9" stroke-width="1.4" fill="none" marker-end="url(#arrow)"><title>Wire 1233</title></path><path d="M1165 170 C1195 170 1180 75 1210 75" stroke="#97aeb9" stroke-width="1.4" fill="none" marker-end="url(#arrow)"><title>Wire 1258</title></path><path d="M595 265 C625 265 610 170 640 170" stroke="#97aeb9" stroke-width="1.4" fill="none" marker-end="url(#arrow)"><title>Wire 1260</title></path><path d="M595 265 C625 265 610 265 640 265" stroke="#97aeb9" stroke-width="1.4" fill="none" marker-end="url(#arrow)"><title>Wire 1260</title></path><path d="M880 170 C910 170 895 265 925 265" stroke="#97aeb9" stroke-width="1.4" fill="none" marker-end="url(#arrow)"><title>Wire 1262</title></path><path d="M1165 265 C1195 265 1180 170 1210 170" stroke="#97aeb9" stroke-width="1.4" fill="none" marker-end="url(#arrow)"><title>Wire 1264</title></path><path d="M880 265 C910 265 895 360 925 360" stroke="#97aeb9" stroke-width="1.4" fill="none" marker-end="url(#arrow)"><title>Wire 1266</title></path><g><rect x="70" y="50" width="240" height="66" rx="5" fill="#fff3d8" stroke="#8fa8b5"/><text x="80" y="73" font-family="sans-serif" font-size="13">Contact · UID 1251</text><text x="80" y="97" font-family="sans-serif" font-size="11">operand: ON</text><title>operand: ON</title></g><g><rect x="355" y="50" width="240" height="66" rx="5" fill="#fff3d8" stroke="#8fa8b5"/><text x="365" y="73" font-family="sans-serif" font-size="13">Contact · UID 1253</text><text x="365" y="97" font-family="sans-serif" font-size="11">operand: Inputs.BWF 01 RUN</text><title>operand: Inputs.BWF 01 RUN</title></g><g><rect x="355" y="145" width="240" height="66" rx="5" fill="#fff3d8" stroke="#8fa8b5"/><text x="365" y="168" font-family="sans-serif" font-size="13">Contact · UID 1255</text><text x="365" y="192" font-family="sans-serif" font-size="11">operand: Inputs.BWF 02 RUN</text><title>operand: Inputs.BWF 02 RUN</title></g><g><rect x="355" y="240" width="240" height="66" rx="5" fill="#fff3d8" stroke="#8fa8b5"/><text x="365" y="263" font-family="sans-serif" font-size="13">Contact · UID 1259</text><text x="365" y="287" font-family="sans-serif" font-size="11">operand: START LIW FEEDER</text><title>operand: START LIW FEEDER</title></g><g><rect x="640" y="50" width="240" height="66" rx="5" fill="#eaf0f8" stroke="#8fa8b5"/><text x="650" y="73" font-family="sans-serif" font-size="13">O · UID 1190</text><text x="650" y="97" font-family="sans-serif" font-size="11"></text><title></title></g><g><rect x="640" y="145" width="240" height="66" rx="5" fill="#fff3d8" stroke="#8fa8b5"/><text x="650" y="168" font-family="sans-serif" font-size="13">NOT Contact · UID 1261</text><text x="650" y="192" font-family="sans-serif" font-size="11">operand: Inputs.BWF 01 RUN</text><title>operand: Inputs.BWF 01 RUN</title></g><g><rect x="640" y="240" width="240" height="66" rx="5" fill="#fff3d8" stroke="#8fa8b5"/><text x="650" y="263" font-family="sans-serif" font-size="13">Contact · UID 1265</text><text x="650" y="287" font-family="sans-serif" font-size="11">operand: Tag_128</text><title>operand: Tag_128</title></g><g><rect x="925" y="50" width="240" height="66" rx="5" fill="#e3f3ee" stroke="#8fa8b5"/><text x="935" y="73" font-family="sans-serif" font-size="13">SdCoil · UID 1196</text><text x="935" y="97" font-family="sans-serif" font-size="11">value: S5T#15M; operand: Tag_127</text><title>value: S5T#15M; operand: Tag_127</title></g><g><rect x="925" y="145" width="240" height="66" rx="5" fill="#fff3d8" stroke="#8fa8b5"/><text x="935" y="168" font-family="sans-serif" font-size="13">Contact · UID 1257</text><text x="935" y="192" font-family="sans-serif" font-size="11">operand: PV-03 GATE EV</text><title>operand: PV-03 GATE EV</title></g><g><rect x="925" y="240" width="240" height="66" rx="5" fill="#fff3d8" stroke="#8fa8b5"/><text x="935" y="263" font-family="sans-serif" font-size="13">NOT Contact · UID 1263</text><text x="935" y="287" font-family="sans-serif" font-size="11">operand: Inputs.BWF 02 RUN</text><title>operand: Inputs.BWF 02 RUN</title></g><g><rect x="925" y="335" width="240" height="66" rx="5" fill="#e3f3ee" stroke="#8fa8b5"/><text x="935" y="358" font-family="sans-serif" font-size="13">RCoil · UID 1215</text><text x="935" y="382" font-family="sans-serif" font-size="11">operand: START LIW FEEDER</text><title>operand: START LIW FEEDER</title></g><g><rect x="1210" y="50" width="240" height="66" rx="5" fill="#e3f3ee" stroke="#8fa8b5"/><text x="1220" y="73" font-family="sans-serif" font-size="13">SCoil · UID 1201</text><text x="1220" y="97" font-family="sans-serif" font-size="11">operand: START LIW FEEDER</text><title>operand: START LIW FEEDER</title></g><g><rect x="1210" y="145" width="240" height="66" rx="5" fill="#e3f3ee" stroke="#8fa8b5"/><text x="1220" y="168" font-family="sans-serif" font-size="13">SdCoil · UID 1210</text><text x="1220" y="192" font-family="sans-serif" font-size="11">value: S5T#15M; operand: Tag_128</text><title>value: S5T#15M; operand: Tag_128</title></g></svg>