<svg xmlns="http://www.w3.org/2000/svg" width="1425" height="345" viewBox="0 0 1425 345"><rect width="100%" height="100%" fill="white"/><defs><marker id="arrow" markerWidth="8" markerHeight="8" refX="7" refY="4" orient="auto"><path d="M0 0L8 4L0 8" fill="#718a98"/></marker></defs><path d="M10 75 C40 75 40 75 70 75" stroke="#97aeb9" stroke-width="1.4" fill="none" marker-end="url(#arrow)"><title>Wire 581</title></path><path d="M310 75 C340 75 325 75 355 75" stroke="#97aeb9" stroke-width="1.4" fill="none" marker-end="url(#arrow)"><title>Wire 578</title></path><path d="M310 75 C340 75 325 170 355 170" stroke="#97aeb9" stroke-width="1.4" fill="none" marker-end="url(#arrow)"><title>Wire 578</title></path><path d="M310 75 C340 75 325 265 355 265" stroke="#97aeb9" stroke-width="1.4" fill="none" marker-end="url(#arrow)"><title>Wire 578</title></path><path d="M595 265 C625 265 610 75 640 75" stroke="#97aeb9" stroke-width="1.4" fill="none" marker-end="url(#arrow)"><title>Wire 580</title></path><path d="M595 265 C625 265 610 170 640 170" stroke="#97aeb9" stroke-width="1.4" fill="none" marker-end="url(#arrow)"><title>Wire 580</title></path><path d="M880 75 C910 75 895 75 925 75" stroke="#97aeb9" stroke-width="1.4" fill="none" marker-end="url(#arrow)"><title>Wire 567</title></path><path d="M880 170 C910 170 895 170 925 170" stroke="#97aeb9" stroke-width="1.4" fill="none" marker-end="url(#arrow)"><title>Wire 572</title></path><g><rect x="70" y="50" width="240" height="66" rx="5" fill="#fff3d8" stroke="#8fa8b5"/><text x="80" y="73" font-family="sans-serif" font-size="13">Contact · UID 577</text><text x="80" y="97" font-family="sans-serif" font-size="11">operand: OFF</text><title>operand: OFF</title></g><g><rect x="355" y="50" width="240" height="66" rx="5" fill="#eaf0f8" stroke="#8fa8b5"/><text x="365" y="73" font-family="sans-serif" font-size="13">Add · UID 517</text><text x="365" y="97" font-family="sans-serif" font-size="11">in1: Data.TC01_SETPOINT; in2: 30; …</text><title>in1: Data.TC01_SETPOINT; in2: 30; out: App02</title></g><g><rect x="355" y="145" width="240" height="66" rx="5" fill="#eaf0f8" stroke="#8fa8b5"/><text x="365" y="168" font-family="sans-serif" font-size="13">Add · UID 523</text><text x="365" y="192" font-family="sans-serif" font-size="11">in1: Data.TC01_SETPOINT; in2: 25; …</text><title>in1: Data.TC01_SETPOINT; in2: 25; out: App03</title></g><g><rect x="355" y="240" width="240" height="66" rx="5" fill="#fff3d8" stroke="#8fa8b5"/><text x="365" y="263" font-family="sans-serif" font-size="13">Contact · UID 579</text><text x="365" y="287" font-family="sans-serif" font-size="11">operand: ON</text><title>operand: ON</title></g><g><rect x="640" y="50" width="240" height="66" rx="5" fill="#eaf0f8" stroke="#8fa8b5"/><text x="650" y="73" font-family="sans-serif" font-size="13">Ge · UID 533</text><text x="650" y="97" font-family="sans-serif" font-size="11">in1: Manage_TC1_2.PID_Ref_Temp; in…</text><title>in1: Manage_TC1_2.PID_Ref_Temp; in2: App02</title></g><g><rect x="640" y="145" width="240" height="66" rx="5" fill="#eaf0f8" stroke="#8fa8b5"/><text x="650" y="168" font-family="sans-serif" font-size="13">Lt · UID 539</text><text x="650" y="192" font-family="sans-serif" font-size="11">in1: Manage_TC1_2.PID_Ref_Temp; in…</text><title>in1: Manage_TC1_2.PID_Ref_Temp; in2: App03</title></g><g><rect x="925" y="50" width="240" height="66" rx="5" fill="#e3f3ee" stroke="#8fa8b5"/><text x="935" y="73" font-family="sans-serif" font-size="13">SCoil · UID 536</text><text x="935" y="97" font-family="sans-serif" font-size="11">operand: Riduce MN01</text><title>operand: Riduce MN01</title></g><g><rect x="925" y="145" width="240" height="66" rx="5" fill="#e3f3ee" stroke="#8fa8b5"/><text x="935" y="168" font-family="sans-serif" font-size="13">RCoil · UID 542</text><text x="935" y="192" font-family="sans-serif" font-size="11">operand: Riduce MN01</text><title>operand: Riduce MN01</title></g></svg>