<svg xmlns="http://www.w3.org/2000/svg" width="1425" height="820" viewBox="0 0 1425 820"><rect width="100%" height="100%" fill="white"/><defs><marker id="arrow" markerWidth="8" markerHeight="8" refX="7" refY="4" orient="auto"><path d="M0 0L8 4L0 8" fill="#718a98"/></marker></defs><path d="M10 75 C40 75 40 75 70 75" stroke="#97aeb9" stroke-width="1.4" fill="none" marker-end="url(#arrow)"><title>Wire 104</title></path><path d="M10 170 C40 170 40 170 70 170" stroke="#97aeb9" stroke-width="1.4" fill="none" marker-end="url(#arrow)"><title>Wire 104</title></path><path d="M10 265 C40 265 40 265 70 265" stroke="#97aeb9" stroke-width="1.4" fill="none" marker-end="url(#arrow)"><title>Wire 104</title></path><path d="M10 360 C40 360 40 360 70 360" stroke="#97aeb9" stroke-width="1.4" fill="none" marker-end="url(#arrow)"><title>Wire 104</title></path><path d="M10 455 C40 455 40 455 70 455" stroke="#97aeb9" stroke-width="1.4" fill="none" marker-end="url(#arrow)"><title>Wire 104</title></path><path d="M310 75 C340 75 325 75 355 75" stroke="#97aeb9" stroke-width="1.4" fill="none" marker-end="url(#arrow)"><title>Wire 103</title></path><path d="M310 75 C340 75 325 170 355 170" stroke="#97aeb9" stroke-width="1.4" fill="none" marker-end="url(#arrow)"><title>Wire 103</title></path><path d="M595 75 C625 75 610 75 640 75" stroke="#97aeb9" stroke-width="1.4" fill="none" marker-end="url(#arrow)"><title>Wire 91</title></path><path d="M595 170 C625 170 610 170 640 170" stroke="#97aeb9" stroke-width="1.4" fill="none" marker-end="url(#arrow)"><title>Wire 97</title></path><path d="M310 170 C340 170 325 265 355 265" stroke="#97aeb9" stroke-width="1.4" fill="none" marker-end="url(#arrow)"><title>Wire 30</title></path><path d="M310 265 C340 265 325 360 355 360" stroke="#97aeb9" stroke-width="1.4" fill="none" marker-end="url(#arrow)"><title>Wire 121</title></path><path d="M310 265 C340 265 325 455 355 455" stroke="#97aeb9" stroke-width="1.4" fill="none" marker-end="url(#arrow)"><title>Wire 121</title></path><path d="M595 360 C625 360 610 265 640 265" stroke="#97aeb9" stroke-width="1.4" fill="none" marker-end="url(#arrow)"><title>Wire 124</title></path><path d="M595 455 C625 455 610 360 640 360" stroke="#97aeb9" stroke-width="1.4" fill="none" marker-end="url(#arrow)"><title>Wire 37</title></path><path d="M880 360 C910 360 895 75 925 75" stroke="#97aeb9" stroke-width="1.4" fill="none" marker-end="url(#arrow)"><title>Wire 40</title></path><path d="M310 360 C340 360 325 550 355 550" stroke="#97aeb9" stroke-width="1.4" fill="none" marker-end="url(#arrow)"><title>Wire 215</title></path><path d="M310 455 C340 455 325 645 355 645" stroke="#97aeb9" stroke-width="1.4" fill="none" marker-end="url(#arrow)"><title>Wire 188</title></path><path d="M310 455 C340 455 325 740 355 740" stroke="#97aeb9" stroke-width="1.4" fill="none" marker-end="url(#arrow)"><title>Wire 188</title></path><path d="M595 645 C625 645 610 455 640 455" stroke="#97aeb9" stroke-width="1.4" fill="none" marker-end="url(#arrow)"><title>Wire 191</title></path><path d="M595 740 C625 740 610 550 640 550" stroke="#97aeb9" stroke-width="1.4" fill="none" marker-end="url(#arrow)"><title>Wire 196</title></path><path d="M880 550 C910 550 895 170 925 170" stroke="#97aeb9" stroke-width="1.4" fill="none" marker-end="url(#arrow)"><title>Wire 199</title></path><g><rect x="70" y="50" width="240" height="66" rx="5" fill="#fff3d8" stroke="#8fa8b5"/><text x="80" y="73" font-family="sans-serif" font-size="13">Contact · UID 102</text><text x="80" y="97" font-family="sans-serif" font-size="11">operand: ON</text><title>operand: ON</title></g><g><rect x="70" y="145" width="240" height="66" rx="5" fill="#eaf0f8" stroke="#8fa8b5"/><text x="80" y="168" font-family="sans-serif" font-size="13">Div · UID 21</text><text x="80" y="192" font-family="sans-serif" font-size="11">in1: Data.SET_PERC_BWF01; in2: 100…</text><title>in1: Data.SET_PERC_BWF01; in2: 100; out: Prod_h</title></g><g><rect x="70" y="240" width="240" height="66" rx="5" fill="#fff3d8" stroke="#8fa8b5"/><text x="80" y="263" font-family="sans-serif" font-size="13">Contact · UID 105</text><text x="80" y="287" font-family="sans-serif" font-size="11">operand: ON</text><title>operand: ON</title></g><g><rect x="70" y="335" width="240" height="66" rx="5" fill="#eaf0f8" stroke="#8fa8b5"/><text x="80" y="358" font-family="sans-serif" font-size="13">Div · UID 204</text><text x="80" y="382" font-family="sans-serif" font-size="11">in1: Data.SET_PERC_BWF02; in2: 100…</text><title>in1: Data.SET_PERC_BWF02; in2: 100; out: Prod_h</title></g><g><rect x="70" y="430" width="240" height="66" rx="5" fill="#fff3d8" stroke="#8fa8b5"/><text x="80" y="453" font-family="sans-serif" font-size="13">Contact · UID 167</text><text x="80" y="477" font-family="sans-serif" font-size="11">operand: ON</text><title>operand: ON</title></g><g><rect x="355" y="50" width="240" height="66" rx="5" fill="#eaf0f8" stroke="#8fa8b5"/><text x="365" y="73" font-family="sans-serif" font-size="13">Lt · UID 65</text><text x="365" y="97" font-family="sans-serif" font-size="11">in1: Ref@80; in2: 0</text><title>in1: Ref@80; in2: 0</title></g><g><rect x="355" y="145" width="240" height="66" rx="5" fill="#eaf0f8" stroke="#8fa8b5"/><text x="365" y="168" font-family="sans-serif" font-size="13">Gt · UID 73</text><text x="365" y="192" font-family="sans-serif" font-size="11">in1: Data2.Set_TH; in2: Data2.Set_…</text><title>in1: Data2.Set_TH; in2: Data2.Set_MAX_TH</title></g><g><rect x="355" y="240" width="240" height="66" rx="5" fill="#eaf0f8" stroke="#8fa8b5"/><text x="365" y="263" font-family="sans-serif" font-size="13">Mul · UID 29</text><text x="365" y="287" font-family="sans-serif" font-size="11">in1: Prod_h; in2: Data2.Set_TH; ou…</text><title>in1: Prod_h; in2: Data2.Set_TH; out: Prod_h</title></g><g><rect x="355" y="335" width="240" height="66" rx="5" fill="#eaf0f8" stroke="#8fa8b5"/><text x="365" y="358" font-family="sans-serif" font-size="13">Lt · UID 106</text><text x="365" y="382" font-family="sans-serif" font-size="11">in1: Prod_h; in2: 0.0</text><title>in1: Prod_h; in2: 0.0</title></g><g><rect x="355" y="430" width="240" height="66" rx="5" fill="#eaf0f8" stroke="#8fa8b5"/><text x="365" y="453" font-family="sans-serif" font-size="13">Gt · UID 108</text><text x="365" y="477" font-family="sans-serif" font-size="11">in1: Prod_h; in2: Data2.Set_MAX_TH…</text><title>in1: Prod_h; in2: Data2.Set_MAX_TH1</title></g><g><rect x="355" y="525" width="240" height="66" rx="5" fill="#eaf0f8" stroke="#8fa8b5"/><text x="365" y="548" font-family="sans-serif" font-size="13">Mul · UID 205</text><text x="365" y="572" font-family="sans-serif" font-size="11">in1: Prod_h; in2: Data2.Set_TH; ou…</text><title>in1: Prod_h; in2: Data2.Set_TH; out: Prod_h</title></g><g><rect x="355" y="620" width="240" height="66" rx="5" fill="#eaf0f8" stroke="#8fa8b5"/><text x="365" y="643" font-family="sans-serif" font-size="13">Lt · UID 168</text><text x="365" y="667" font-family="sans-serif" font-size="11">in1: Prod_h; in2: 0.0</text><title>in1: Prod_h; in2: 0.0</title></g><g><rect x="355" y="715" width="240" height="66" rx="5" fill="#eaf0f8" stroke="#8fa8b5"/><text x="365" y="738" font-family="sans-serif" font-size="13">Gt · UID 170</text><text x="365" y="762" font-family="sans-serif" font-size="11">in1: Prod_h; in2: Data2.Set_MAX_TH…</text><title>in1: Prod_h; in2: Data2.Set_MAX_TH2</title></g><g><rect x="640" y="50" width="240" height="66" rx="5" fill="#eaf0f8" stroke="#8fa8b5"/><text x="650" y="73" font-family="sans-serif" font-size="13">Move · UID 68</text><text x="650" y="97" font-family="sans-serif" font-size="11">in: 0; out1: Data2.Set_TH</text><title>in: 0; out1: Data2.Set_TH</title></g><g><rect x="640" y="145" width="240" height="66" rx="5" fill="#eaf0f8" stroke="#8fa8b5"/><text x="650" y="168" font-family="sans-serif" font-size="13">Move · UID 76</text><text x="650" y="192" font-family="sans-serif" font-size="11">in: Data2.Set_MAX_TH; out1: Data2.…</text><title>in: Data2.Set_MAX_TH; out1: Data2.Set_TH</title></g><g><rect x="640" y="240" width="240" height="66" rx="5" fill="#eaf0f8" stroke="#8fa8b5"/><text x="650" y="263" font-family="sans-serif" font-size="13">Move · UID 107</text><text x="650" y="287" font-family="sans-serif" font-size="11">in: 0; out1: Data.SET_PERC_BWF01</text><title>in: 0; out1: Data.SET_PERC_BWF01</title></g><g><rect x="640" y="335" width="240" height="66" rx="5" fill="#eaf0f8" stroke="#8fa8b5"/><text x="650" y="358" font-family="sans-serif" font-size="13">Mul · UID 159</text><text x="650" y="382" font-family="sans-serif" font-size="11">in1: Data2.Set_MAX_TH1; in2: 100.0…</text><title>in1: Data2.Set_MAX_TH1; in2: 100.0; out: tmp</title></g><g><rect x="640" y="430" width="240" height="66" rx="5" fill="#eaf0f8" stroke="#8fa8b5"/><text x="650" y="453" font-family="sans-serif" font-size="13">Move · UID 169</text><text x="650" y="477" font-family="sans-serif" font-size="11">in: 0; out1: Data.SET_PERC_BWF02</text><title>in: 0; out1: Data.SET_PERC_BWF02</title></g><g><rect x="640" y="525" width="240" height="66" rx="5" fill="#eaf0f8" stroke="#8fa8b5"/><text x="650" y="548" font-family="sans-serif" font-size="13">Mul · UID 171</text><text x="650" y="572" font-family="sans-serif" font-size="11">in1: Data2.Set_MAX_TH2; in2: 100.0…</text><title>in1: Data2.Set_MAX_TH2; in2: 100.0; out: tmp</title></g><g><rect x="925" y="50" width="240" height="66" rx="5" fill="#eaf0f8" stroke="#8fa8b5"/><text x="935" y="73" font-family="sans-serif" font-size="13">Div · UID 39</text><text x="935" y="97" font-family="sans-serif" font-size="11">in1: tmp; in2: Data2.Set_MAX_TH; o…</text><title>in1: tmp; in2: Data2.Set_MAX_TH; out: Data.SET_PERC_BWF01</title></g><g><rect x="925" y="145" width="240" height="66" rx="5" fill="#eaf0f8" stroke="#8fa8b5"/><text x="935" y="168" font-family="sans-serif" font-size="13">Div · UID 172</text><text x="935" y="192" font-family="sans-serif" font-size="11">in1: tmp; in2: Data2.Set_MAX_TH; o…</text><title>in1: tmp; in2: Data2.Set_MAX_TH; out: Data.SET_PERC_BWF02</title></g></svg>