<svg xmlns="http://www.w3.org/2000/svg" width="1425" height="250" viewBox="0 0 1425 250"><rect width="100%" height="100%" fill="white"/><defs><marker id="arrow" markerWidth="8" markerHeight="8" refX="7" refY="4" orient="auto"><path d="M0 0L8 4L0 8" fill="#718a98"/></marker></defs><path d="M10 75 C40 75 40 75 70 75" stroke="#97aeb9" stroke-width="1.4" fill="none" marker-end="url(#arrow)"><title>Wire 339</title></path><path d="M310 75 C340 75 325 75 355 75" stroke="#97aeb9" stroke-width="1.4" fill="none" marker-end="url(#arrow)"><title>Wire 336</title></path><path d="M595 75 C625 75 610 75 640 75" stroke="#97aeb9" stroke-width="1.4" fill="none" marker-end="url(#arrow)"><title>Wire 338</title></path><path d="M880 75 C910 75 895 75 925 75" stroke="#97aeb9" stroke-width="1.4" fill="none" marker-end="url(#arrow)"><title>Wire 334</title></path><path d="M880 75 C910 75 895 170 925 170" stroke="#97aeb9" stroke-width="1.4" fill="none" marker-end="url(#arrow)"><title>Wire 334</title></path><g><rect x="70" y="50" width="240" height="66" rx="5" fill="#fff3d8" stroke="#8fa8b5"/><text x="80" y="73" font-family="sans-serif" font-size="13">Contact · UID 335</text><text x="80" y="97" font-family="sans-serif" font-size="11">operand: ON</text><title>operand: ON</title></g><g><rect x="355" y="50" width="240" height="66" rx="5" fill="#fff3d8" stroke="#8fa8b5"/><text x="365" y="73" font-family="sans-serif" font-size="13">NOT Contact · UID 337</text><text x="365" y="97" font-family="sans-serif" font-size="11">operand: Flag.M_TDPRO_REPORT</text><title>operand: Flag.M_TDPRO_REPORT</title></g><g><rect x="640" y="50" width="240" height="66" rx="5" fill="#eaf0f8" stroke="#8fa8b5"/><text x="650" y="73" font-family="sans-serif" font-size="13">PBox · UID 306</text><text x="650" y="97" font-family="sans-serif" font-size="11">bit: PLS 50_5</text><title>bit: PLS 50_5</title></g><g><rect x="925" y="50" width="240" height="66" rx="5" fill="#eaf0f8" stroke="#8fa8b5"/><text x="935" y="73" font-family="sans-serif" font-size="13">Move · UID 311</text><text x="935" y="97" font-family="sans-serif" font-size="11">in: 0; out1: Data.BWF01_count_rep</text><title>in: 0; out1: Data.BWF01_count_rep</title></g><g><rect x="925" y="145" width="240" height="66" rx="5" fill="#eaf0f8" stroke="#8fa8b5"/><text x="935" y="168" font-family="sans-serif" font-size="13">Move · UID 316</text><text x="935" y="192" font-family="sans-serif" font-size="11">in: 0; out1: Data.BWF02_count_rep</text><title>in: 0; out1: Data.BWF02_count_rep</title></g></svg>