<svg xmlns="http://www.w3.org/2000/svg" width="1425" height="440" viewBox="0 0 1425 440"><rect width="100%" height="100%" fill="white"/><defs><marker id="arrow" markerWidth="8" markerHeight="8" refX="7" refY="4" orient="auto"><path d="M0 0L8 4L0 8" fill="#718a98"/></marker></defs><path d="M10 75 C40 75 40 75 70 75" stroke="#97aeb9" stroke-width="1.4" fill="none" marker-end="url(#arrow)"><title>Wire 336</title></path><path d="M310 75 C340 75 325 75 355 75" stroke="#97aeb9" stroke-width="1.4" fill="none" marker-end="url(#arrow)"><title>Wire 329</title></path><path d="M310 75 C340 75 325 170 355 170" stroke="#97aeb9" stroke-width="1.4" fill="none" marker-end="url(#arrow)"><title>Wire 329</title></path><path d="M310 75 C340 75 325 265 355 265" stroke="#97aeb9" stroke-width="1.4" fill="none" marker-end="url(#arrow)"><title>Wire 329</title></path><path d="M310 75 C340 75 325 360 355 360" stroke="#97aeb9" stroke-width="1.4" fill="none" marker-end="url(#arrow)"><title>Wire 329</title></path><path d="M595 170 C625 170 610 75 640 75" stroke="#97aeb9" stroke-width="1.4" fill="none" marker-end="url(#arrow)"><title>Wire 331</title></path><path d="M595 265 C625 265 610 170 640 170" stroke="#97aeb9" stroke-width="1.4" fill="none" marker-end="url(#arrow)"><title>Wire 333</title></path><path d="M595 360 C625 360 610 265 640 265" stroke="#97aeb9" stroke-width="1.4" fill="none" marker-end="url(#arrow)"><title>Wire 335</title></path><path d="M595 360 C625 360 610 360 640 360" stroke="#97aeb9" stroke-width="1.4" fill="none" marker-end="url(#arrow)"><title>Wire 335</title></path><path d="M880 265 C910 265 895 75 925 75" stroke="#97aeb9" stroke-width="1.4" fill="none" marker-end="url(#arrow)"><title>Wire 318</title></path><path d="M880 360 C910 360 895 170 925 170" stroke="#97aeb9" stroke-width="1.4" fill="none" marker-end="url(#arrow)"><title>Wire 323</title></path><g><rect x="70" y="50" width="240" height="66" rx="5" fill="#fff3d8" stroke="#8fa8b5"/><text x="80" y="73" font-family="sans-serif" font-size="13">Contact · UID 328</text><text x="80" y="97" font-family="sans-serif" font-size="11">operand: ON</text><title>operand: ON</title></g><g><rect x="355" y="50" width="240" height="66" rx="5" fill="#eaf0f8" stroke="#8fa8b5"/><text x="365" y="73" font-family="sans-serif" font-size="13">Sub · UID 256</text><text x="365" y="97" font-family="sans-serif" font-size="11">in1: Data.PSH03_SETPOINT; in2: Dat…</text><title>in1: Data.PSH03_SETPOINT; in2: Data.PSH03; out: ErrPSH03</title></g><g><rect x="355" y="145" width="240" height="66" rx="5" fill="#fff3d8" stroke="#8fa8b5"/><text x="365" y="168" font-family="sans-serif" font-size="13">NOT Contact · UID 330</text><text x="365" y="192" font-family="sans-serif" font-size="11">operand: Tag_147</text><title>operand: Tag_147</title></g><g><rect x="355" y="240" width="240" height="66" rx="5" fill="#fff3d8" stroke="#8fa8b5"/><text x="365" y="263" font-family="sans-serif" font-size="13">Contact · UID 332</text><text x="365" y="287" font-family="sans-serif" font-size="11">operand: Tag_148</text><title>operand: Tag_148</title></g><g><rect x="355" y="335" width="240" height="66" rx="5" fill="#fff3d8" stroke="#8fa8b5"/><text x="365" y="358" font-family="sans-serif" font-size="13">NOT Contact · UID 334</text><text x="365" y="382" font-family="sans-serif" font-size="11">operand: Tag_148</text><title>operand: Tag_148</title></g><g><rect x="640" y="50" width="240" height="66" rx="5" fill="#e3f3ee" stroke="#8fa8b5"/><text x="650" y="73" font-family="sans-serif" font-size="13">SdCoil · UID 263</text><text x="650" y="97" font-family="sans-serif" font-size="11">value: S5T#4S; operand: Tag_148</text><title>value: S5T#4S; operand: Tag_148</title></g><g><rect x="640" y="145" width="240" height="66" rx="5" fill="#e3f3ee" stroke="#8fa8b5"/><text x="650" y="168" font-family="sans-serif" font-size="13">SdCoil · UID 268</text><text x="650" y="192" font-family="sans-serif" font-size="11">value: S5T#10S; operand: Tag_147</text><title>value: S5T#10S; operand: Tag_147</title></g><g><rect x="640" y="240" width="240" height="66" rx="5" fill="#eaf0f8" stroke="#8fa8b5"/><text x="650" y="263" font-family="sans-serif" font-size="13">Ge · UID 276</text><text x="650" y="287" font-family="sans-serif" font-size="11">in1: ErrPSH03; in2: 5</text><title>in1: ErrPSH03; in2: 5</title></g><g><rect x="640" y="335" width="240" height="66" rx="5" fill="#eaf0f8" stroke="#8fa8b5"/><text x="650" y="358" font-family="sans-serif" font-size="13">Lt · UID 282</text><text x="650" y="382" font-family="sans-serif" font-size="11">in1: ErrPSH03; in2: -5</text><title>in1: ErrPSH03; in2: -5</title></g><g><rect x="925" y="50" width="240" height="66" rx="5" fill="#e3f3ee" stroke="#8fa8b5"/><text x="935" y="73" font-family="sans-serif" font-size="13">Coil · UID 279</text><text x="935" y="97" font-family="sans-serif" font-size="11">operand: PID down MV03</text><title>operand: PID down MV03</title></g><g><rect x="925" y="145" width="240" height="66" rx="5" fill="#e3f3ee" stroke="#8fa8b5"/><text x="935" y="168" font-family="sans-serif" font-size="13">Coil · UID 285</text><text x="935" y="192" font-family="sans-serif" font-size="11">operand: PID UP MV03</text><title>operand: PID UP MV03</title></g></svg>