<svg xmlns="http://www.w3.org/2000/svg" width="1425" height="440" viewBox="0 0 1425 440"><rect width="100%" height="100%" fill="white"/><defs><marker id="arrow" markerWidth="8" markerHeight="8" refX="7" refY="4" orient="auto"><path d="M0 0L8 4L0 8" fill="#718a98"/></marker></defs><path d="M10 75 C40 75 40 75 70 75" stroke="#97aeb9" stroke-width="1.4" fill="none" marker-end="url(#arrow)"><title>Wire 983</title></path><path d="M310 75 C340 75 325 75 355 75" stroke="#97aeb9" stroke-width="1.4" fill="none" marker-end="url(#arrow)"><title>Wire 978</title></path><path d="M310 75 C340 75 325 170 355 170" stroke="#97aeb9" stroke-width="1.4" fill="none" marker-end="url(#arrow)"><title>Wire 978</title></path><path d="M595 75 C625 75 610 75 640 75" stroke="#97aeb9" stroke-width="1.4" fill="none" marker-end="url(#arrow)"><title>Wire 958</title></path><path d="M595 75 C625 75 610 170 640 170" stroke="#97aeb9" stroke-width="1.4" fill="none" marker-end="url(#arrow)"><title>Wire 958</title></path><path d="M880 170 C910 170 895 75 925 75" stroke="#97aeb9" stroke-width="1.4" fill="none" marker-end="url(#arrow)"><title>Wire 980</title></path><path d="M595 170 C625 170 610 265 640 265" stroke="#97aeb9" stroke-width="1.4" fill="none" marker-end="url(#arrow)"><title>Wire 982</title></path><path d="M595 170 C625 170 610 360 640 360" stroke="#97aeb9" stroke-width="1.4" fill="none" marker-end="url(#arrow)"><title>Wire 982</title></path><path d="M880 360 C910 360 895 170 925 170" stroke="#97aeb9" stroke-width="1.4" fill="none" marker-end="url(#arrow)"><title>Wire 971</title></path><path d="M880 360 C910 360 895 265 925 265" stroke="#97aeb9" stroke-width="1.4" fill="none" marker-end="url(#arrow)"><title>Wire 971</title></path><g><rect x="70" y="50" width="240" height="66" rx="5" fill="#fff3d8" stroke="#8fa8b5"/><text x="80" y="73" font-family="sans-serif" font-size="13">Contact · UID 977</text><text x="80" y="97" font-family="sans-serif" font-size="11">operand: ON</text><title>operand: ON</title></g><g><rect x="355" y="50" width="240" height="66" rx="5" fill="#eaf0f8" stroke="#8fa8b5"/><text x="365" y="73" font-family="sans-serif" font-size="13">Ge · UID 908</text><text x="365" y="97" font-family="sans-serif" font-size="11">in1: Data.PSH_02; in2: Data.PSH02_…</text><title>in1: Data.PSH_02; in2: Data.PSH02_MAX_SETPOINT</title></g><g><rect x="355" y="145" width="240" height="66" rx="5" fill="#fff3d8" stroke="#8fa8b5"/><text x="365" y="168" font-family="sans-serif" font-size="13">Contact · UID 981</text><text x="365" y="192" font-family="sans-serif" font-size="11">operand: Allarm.MAX_PSH_02</text><title>operand: Allarm.MAX_PSH_02</title></g><g><rect x="640" y="50" width="240" height="66" rx="5" fill="#e3f3ee" stroke="#8fa8b5"/><text x="650" y="73" font-family="sans-serif" font-size="13">SdCoil · UID 914</text><text x="650" y="97" font-family="sans-serif" font-size="11">value: S5T#3M; operand: Tag_111</text><title>value: S5T#3M; operand: Tag_111</title></g><g><rect x="640" y="145" width="240" height="66" rx="5" fill="#fff3d8" stroke="#8fa8b5"/><text x="650" y="168" font-family="sans-serif" font-size="13">Contact · UID 979</text><text x="650" y="192" font-family="sans-serif" font-size="11">operand: Tag_111</text><title>operand: Tag_111</title></g><g><rect x="640" y="240" width="240" height="66" rx="5" fill="#eaf0f8" stroke="#8fa8b5"/><text x="650" y="263" font-family="sans-serif" font-size="13">Sub · UID 926</text><text x="650" y="287" font-family="sans-serif" font-size="11">in1: Data.PSH02_MAX_SETPOINT; in2:…</text><title>in1: Data.PSH02_MAX_SETPOINT; in2: 5; out: app06</title></g><g><rect x="640" y="335" width="240" height="66" rx="5" fill="#eaf0f8" stroke="#8fa8b5"/><text x="650" y="358" font-family="sans-serif" font-size="13">Lt · UID 932</text><text x="650" y="382" font-family="sans-serif" font-size="11">in1: Data.PSH_02; in2: app06</text><title>in1: Data.PSH_02; in2: app06</title></g><g><rect x="925" y="50" width="240" height="66" rx="5" fill="#e3f3ee" stroke="#8fa8b5"/><text x="935" y="73" font-family="sans-serif" font-size="13">SCoil · UID 919</text><text x="935" y="97" font-family="sans-serif" font-size="11">operand: Allarm.MAX_PSH_02</text><title>operand: Allarm.MAX_PSH_02</title></g><g><rect x="925" y="145" width="240" height="66" rx="5" fill="#e3f3ee" stroke="#8fa8b5"/><text x="935" y="168" font-family="sans-serif" font-size="13">RCoil · UID 936</text><text x="935" y="192" font-family="sans-serif" font-size="11">operand: Allarm.MAX_PSH_02</text><title>operand: Allarm.MAX_PSH_02</title></g><g><rect x="925" y="240" width="240" height="66" rx="5" fill="#e3f3ee" stroke="#8fa8b5"/><text x="935" y="263" font-family="sans-serif" font-size="13">SCoil · UID 938</text><text x="935" y="287" font-family="sans-serif" font-size="11">operand: Flag.STOP_HORN</text><title>operand: Flag.STOP_HORN</title></g></svg>